<svg xmlns="http://www.w3.org/2000/svg" width="1060" height="1018" viewBox="0 0 1060 1018" font-family="-apple-system, Helvetica, Arial, sans-serif">
<rect width="1060" height="1018" fill="#ffffff"/>
<text x="70" y="26" font-size="15" font-weight="600" fill="#1f2328">The twin's second build: a tetrahedron of four Ø200 µm PLA beads in the glass chamber</text>
<text x="70" y="44" font-size="11.5" fill="#1f2328">side view (mm from the pick-up trap) — each bead's path from the pick-up down onto the support</text>
<text x="661.3330000000001" y="44" font-size="11.5" fill="#1f2328">top view of the finished build (mm)</text>
<rect x="70" y="58" width="531" height="891" fill="none" stroke="#d0d7de"/>
<line x1="70" x2="601" y1="850.0" y2="850.0" stroke="#d0d7de" stroke-width="0.6"/>
<text x="62" y="854.0" font-size="11" text-anchor="end" fill="#1f2328">-2</text>
<line x1="70" x2="601" y1="685.0" y2="685.0" stroke="#d0d7de" stroke-width="0.6"/>
<text x="62" y="689.0" font-size="11" text-anchor="end" fill="#1f2328">-1.5</text>
<line x1="70" x2="601" y1="520.0" y2="520.0" stroke="#d0d7de" stroke-width="0.6"/>
<text x="62" y="524.0" font-size="11" text-anchor="end" fill="#1f2328">-1</text>
<line x1="70" x2="601" y1="355.0" y2="355.0" stroke="#d0d7de" stroke-width="0.6"/>
<text x="62" y="359.0" font-size="11" text-anchor="end" fill="#1f2328">-0.5</text>
<line x1="70" x2="601" y1="190.0" y2="190.0" stroke="#d0d7de" stroke-width="0.6"/>
<text x="62" y="194.0" font-size="11" text-anchor="end" fill="#1f2328">0</text>
<text x="202.0" y="965" font-size="11" text-anchor="middle" fill="#1f2328">0</text>
<text x="367.0" y="965" font-size="11" text-anchor="middle" fill="#1f2328">0.5</text>
<text x="532.0" y="965" font-size="11" text-anchor="middle" fill="#1f2328">1</text>
<rect x="70" y="850.0" width="531" height="99.0" fill="#eaeef2"/>
<line x1="70" x2="601" y1="850.0" y2="850.0" stroke="#57606a" stroke-width="1.4"/>
<text x="595" y="866.0" font-size="11" text-anchor="end" fill="#1f2328">support</text>
<circle cx="202.0" cy="190.0" r="4" fill="none" stroke="#1f2328" stroke-width="1.2"/>
<text x="210.0" y="182.0" font-size="11" fill="#1f2328">pick-up</text>
<polyline points="202.0,190.0 202.0,190.0 202.0,190.0 202.0,190.0 202.0,190.0 202.0,190.0 202.0,190.0 202.0,190.0 202.0,190.0 202.0,190.0 202.0,190.0 202.0,190.0 202.0,190.0 202.0,190.0 202.0,190.0 202.0,190.0 202.0,190.0 202.0,190.0 202.0,190.0 202.0,190.0 202.0,190.0 202.0,190.0 202.0,190.0 202.0,190.0 202.0,190.0 202.0,190.0 202.0,190.0 202.0,190.0 202.0,190.0 202.0,190.0 202.0,190.0 202.0,190.0 202.0,190.0 202.0,190.0 202.0,190.0 202.0,190.0 202.0,190.0 202.0,190.0 202.0,190.0 202.0,190.0 202.0,190.0 202.0,190.0 202.0,190.0 202.0,190.0 202.0,190.0 202.0,190.0 202.0,190.0 202.0,190.0 202.0,190.0 202.0,190.0 202.0,190.0 202.0,190.0 202.0,190.0 202.0,190.0 202.0,190.0 202.0,190.0 202.0,190.0 202.0,190.0 202.0,190.0 202.0,190.0 202.0,190.0 202.0,190.0 202.0,190.0 202.0,190.0 202.0,190.0 202.0,190.0 202.0,190.0 202.0,190.0 202.0,190.0 202.0,190.0 202.0,190.0 202.0,190.0 202.0,190.0 202.0,190.0 202.0,190.0 202.0,190.0 202.0,190.0 202.0,190.0 202.0,190.0 202.0,190.0 202.0,190.0 202.0,190.0 202.0,190.0 202.0,190.0 202.0,190.0 202.0,190.0 202.0,190.0 202.0,190.0 202.0,190.0 202.0,190.0 202.0,190.0 202.0,190.0 202.0,190.0 202.0,190.0 202.0,190.0 202.0,190.0 202.0,190.0 202.0,190.0 202.0,190.0 202.0,190.0 202.0,190.0 202.0,190.0 202.0,190.0 202.0,190.0 202.0,190.0 202.0,190.0 202.0,190.0 202.0,190.0 202.0,190.0 202.0,190.0 202.0,190.0 202.0,190.0 202.0,190.0 202.0,190.0 202.0,190.0 202.0,190.0 202.0,190.0 202.0,190.0 202.0,190.0 202.0,190.0 202.0,190.0 202.0,190.0 202.0,190.0 202.0,190.0 202.0,190.0 202.0,190.0 202.0,190.0 202.0,190.0 202.0,190.0 202.0,190.0 202.0,190.0 202.0,190.0 202.0,190.0 202.0,190.0 202.0,190.0 202.0,190.0 202.0,190.0 202.0,190.0 202.0,190.0 202.0,190.0 202.0,190.0 202.0,190.0 202.0,190.0 202.0,190.0 202.0,190.0 202.0,190.0 202.0,190.0 202.0,190.0 202.0,190.0 202.0,190.0 202.0,190.0 202.0,190.0 202.0,190.0 202.0,190.0 202.0,190.0 202.0,190.0 202.0,190.0 202.0,190.0 202.0,190.0 202.0,190.0 202.0,190.0 202.0,190.0 202.0,190.0 202.0,190.0 202.0,190.0 202.0,190.0 202.0,190.0 202.0,190.0 202.0,190.0 202.0,190.0 202.0,190.0 202.0,190.0 202.0,190.0 202.0,190.0 202.0,190.0 202.0,190.0 202.0,190.0 202.0,190.0 202.0,190.0 202.0,190.0 202.0,190.0 202.0,190.0 202.0,190.0 202.0,190.0 202.0,190.0 202.0,190.0 202.0,190.0 202.0,190.0 202.0,190.0 202.0,190.0 202.0,190.0 202.0,190.0 202.0,190.0 202.0,190.0 202.0,190.0 202.0,190.0 202.0,190.0 202.0,190.0 202.0,190.0 202.0,190.0 202.0,190.0 202.0,190.0 202.0,190.0 202.0,190.0 202.0,190.0 202.0,190.0 202.0,190.0 202.0,190.0 202.0,190.0 202.0,190.0 202.0,190.0 202.0,190.0 202.0,190.0 202.0,190.0 202.0,190.0 202.0,190.0 202.0,190.0 202.0,190.0 202.0,190.0 202.0,190.0 202.0,190.0 202.0,190.0 202.0,190.0 202.0,190.0 202.0,190.0 202.0,190.0 202.0,190.0 202.0,190.0 202.0,190.0 202.0,190.0 202.0,190.0 202.0,190.0 202.0,190.0 202.0,190.0 202.0,190.0 202.0,190.0 202.0,190.0 202.0,190.0 202.0,190.0 202.0,190.0 202.0,190.0 202.0,190.0 202.0,190.0 202.0,190.0 202.0,190.0 202.0,190.0 202.0,190.0 202.0,190.0 202.0,190.0 202.0,190.0 202.0,190.0 202.0,190.0 202.1,190.0 202.4,189.9 203.0,189.8 204.0,189.7 205.6,189.5 207.8,189.3 210.8,189.0 214.5,188.8 219.0,188.6 224.3,188.4 230.3,188.3 236.9,188.3 244.1,188.4 251.7,188.6 259.6,188.8 267.5,189.2 275.4,189.6 283.1,190.1 290.5,190.5 297.5,191.0 303.9,191.5 309.7,191.8 314.8,192.1 319.1,192.2 322.6,192.2 325.5,192.0 327.7,191.7 329.3,191.2 330.5,190.6 331.3,190.0 331.9,189.5 332.4,189.0 332.9,188.7 333.6,188.5 334.7,188.5 336.2,188.6 338.2,188.8 340.8,189.1 344.0,189.4 348.2,189.7 352.9,190.2 358.2,191.3 363.7,193.4 369.3,196.8 374.6,201.5 379.6,207.2 384.1,213.8 387.8,220.6 390.8,227.1 393.0,232.8 394.3,237.5 394.7,240.9 394.2,243.1 392.7,244.3 390.5,244.9 387.4,245.5 383.6,246.4 379.3,248.1 374.5,251.0 369.4,255.7 364.2,261.7 359.2,268.4 354.6,275.2 350.5,281.5 347.2,286.8 344.7,290.7 343.2,293.3 342.7,294.7 343.3,295.4 344.8,295.9 347.1,296.7 350.3,298.3 354.0,301.0 358.1,305.1 362.5,310.3 367.0,316.3 371.4,322.8 375.6,329.2 379.3,335.1 382.6,340.6 385.1,345.3 387.0,348.9 388.1,351.3 388.4,352.7 387.9,353.6 386.7,354.6 384.8,356.1 382.2,358.5 379.1,362.1 375.7,366.9 372.1,372.6 368.4,378.8 364.8,385.0 361.6,390.7 358.7,395.3 356.3,398.7 354.5,400.8 353.3,401.9 352.7,402.4 352.7,403.3 353.3,405.1 354.5,407.7 356.1,411.3 358.2,415.9 360.6,421.2 363.3,427.1 366.1,433.0 368.9,438.8 371.8,443.9 374.4,448.3 376.8,451.8 378.9,454.4 380.5,456.4 381.6,458.1 382.1,459.9 382.0,462.1 381.4,464.8 380.2,468.3 378.6,472.4 376.3,477.8 373.8,483.7 371.0,489.5 368.0,494.8 364.9,499.1 362.0,502.6 359.3,505.2 356.9,507.2 355.0,509.0 353.6,511.1 352.8,513.7 352.6,517.2 353.0,521.6 354.1,526.6 355.8,532.0 357.9,537.3 360.5,542.1 363.3,546.0 366.3,548.8 369.3,550.7 372.2,552.6 374.8,554.6 377.0,556.8 378.7,559.6 379.8,563.1 380.4,567.4 380.4,572.3 379.8,577.5 378.6,582.6 377.0,587.3 374.9,591.3 372.6,594.5 370.0,597.0 367.4,599.1 364.9,601.2 362.6,603.7 360.6,606.7 359.0,610.4 357.9,614.7 357.3,619.4 357.2,624.9 357.7,630.4 358.6,635.1 360.0,638.5 361.8,640.8 363.8,642.2 366.1,643.4 368.6,645.0 371.0,647.6 373.4,651.5 375.5,656.5 377.4,662.4 378.8,668.4 379.7,673.8 380.0,678.3 379.7,681.4 378.7,683.3 377.3,684.5 375.4,685.5 373.2,687.2 370.7,691.0 368.2,696.5 365.7,702.9 363.2,709.3 361.0,715.0 358.9,719.4 357.3,722.2 356.0,723.9 355.3,725.0 355.2,726.3 355.6,728.5 356.6,732.0 358.2,736.7 360.1,742.4 362.3,748.3 364.8,753.6 367.1,757.8 369.3,760.6 371.3,762.2 373.0,763.3 374.3,765.3 375.2,768.0 375.7,770.4 375.6,772.0 375.0,772.2 373.9,771.0 372.3,768.9 370.6,766.5 368.6,764.6 366.7,763.7 364.8,764.1 363.1,765.6 361.8,767.6 360.6,769.5 359.9,770.6 359.4,770.6 359.4,769.5 359.7,767.6 360.5,765.6 361.5,764.1 362.9,763.6 364.6,764.4 366.4,766.1 368.3,768.3 370.1,770.3 371.6,771.6 372.8,771.6 373.7,770.4 374.1,768.5 374.2,766.3 373.8,764.6 373.1,763.8 372.1,764.1 370.9,765.4 369.4,767.2 367.8,768.9 366.2,770.0 364.5,770.0 363.0,769.2 361.7,767.7 360.7,766.0 360.0,764.8 359.8,764.5 360.1,765.2 360.8,766.7 361.8,768.6 363.2,770.2 364.7,771.2 366.3,771.1 368.0,770.0 369.5,768.2 370.9,766.2 372.0,764.7 372.9,764.0 373.4,764.3 373.6,765.5 373.4,767.1 372.9,768.6 371.9,769.5 370.7,769.6 369.2,768.9 367.6,767.6 365.9,766.2 364.4,765.3 363.0,765.0 362.0,765.7 361.3,767.0 360.9,768.6 360.9,770.0 361.2,770.7 361.9,770.6 362.7,769.6 363.9,768.0 365.2,766.3 366.5,765.0 367.9,764.4 369.3,764.7 370.5,765.8 371.6,767.2 372.3,768.5 372.6,769.3 372.7,769.4 372.3,768.8 371.7,767.6 370.7,766.4 369.6,765.6 368.4,765.4 367.1,765.9 365.9,767.0 364.8,768.4 363.9,769.6 363.1,770.2 362.5,770.0 362.2,769.1 362.1,767.7 362.3,766.3 362.8,765.2 363.5,764.8 364.5,765.2 365.5,766.1 366.7,767.4 367.8,768.6 368.9,769.3 369.8,769.3 370.5,768.8 371.0,767.7 371.2,766.6 371.2,765.9 371.0,765.6 370.6,766.1 370.1,767.0 369.3,768.2 368.5,769.1 367.6,769.6 366.6,769.4 365.6,768.6 364.8,767.4 364.0,766.2 363.4,765.4 363.1,765.1 363.0,765.6 363.1,766.5 363.5,767.7 364.0,768.7 364.7,769.3 365.5,769.3 366.3,768.8 367.2,767.8 368.0,766.8 368.8,766.1 369.5,765.9 370.1,766.3 370.5,767.0 370.7,768.0 370.7,768.8 370.5,769.1 370.0,768.9 369.4,768.2 368.6,767.2 367.8,766.2 366.9,765.5 366.0,765.4 365.2,765.9 364.6,766.7 364.0,767.8 363.7,768.8 363.5,769.3 363.5,769.2 363.7,768.7 364.1,767.9 364.7,767.0 365.4,766.5 366.2,766.7 367.1,767.7 368.0,769.4 368.9,771.5 369.7,773.5 370.4,775.1 370.9,775.9 371.1,776.0 371.2,775.6 371.0,775.1 370.7,775.0 370.3,775.5 369.7,776.7 369.2,778.7 368.7,780.9 368.1,783.0 367.6,784.5 367.1,785.4 366.7,785.7 366.5,785.6 366.4,785.1 366.5,784.3 366.8,783.5 367.1,782.9 367.7,782.8 368.3,783.0 368.9,783.6 369.6,784.3 370.2,784.8 370.8,784.9 371.2,784.7 371.5,784.1 371.6,783.4 371.6,782.8 371.4,782.5 371.1,782.7 370.8,783.2 370.3,783.9 369.8,784.7 369.2,785.3 368.7,785.5 368.2,785.2 367.7,784.7 367.3,784.0 367.0,783.3 366.9,782.9 366.9,782.9 367.1,783.3 367.4,783.8 367.8,784.4 368.2,784.8 368.7,784.8 369.2,784.6 369.7,784.0 370.1,783.4 370.5,783.0 370.7,782.8 371.0,783.0 371.1,783.5 371.1,784.1 371.0,784.8 370.8,785.1 370.4,785.2 370.0,784.9 369.6,784.3 369.1,783.7 368.7,783.2 368.3,782.9 367.9,783.0 367.6,783.4 367.5,784.0 367.4,784.4 367.4,784.7 367.6,784.7 367.7,784.4 368.0,784.0 368.3,783.5 368.7,783.1 369.1,783.1 369.5,783.3 369.9,783.8 370.2,784.3 370.5,784.8 370.7,785.0 370.8,784.9 370.8,784.5 370.7,784.0 370.5,783.4 370.2,783.1 369.9,782.9 369.5,783.1 369.1,783.5 368.8,784.0 368.5,784.5 368.2,784.8 367.9,785.1 367.7,785.5 367.6,786.1 367.5,787.0 367.5,788.2 367.6,789.5 367.7,790.8 367.8,792.0 367.9,792.9 367.9,793.6 368.0,794.0 368.0,794.4 367.9,794.7 367.8,795.3 367.7,796.1 367.5,797.1 367.2,798.3 366.9,799.5 366.6,800.9 366.2,802.1 365.8,802.6 365.3,802.4 364.9,801.6 364.5,800.4 364.2,799.2 364.0,798.5 364.0,798.4 364.1,799.0 364.3,800.1 364.7,801.4 365.1,802.3 365.4,802.7 365.9,802.4 366.2,801.4 366.6,800.2 366.9,799.0 367.1,798.3 367.4,798.3 367.5,798.9 367.6,799.9 367.5,801.1 367.4,802.0 367.2,802.3 366.8,802.0 366.4,801.2 365.9,800.1 365.5,799.1 365.1,798.7 364.8,798.8 364.6,799.4 364.5,800.5 364.4,801.5 364.5,802.2 364.6,802.4 364.7,802.0 364.9,801.0 365.2,799.9 365.5,799.0 365.8,798.5 366.2,798.7 366.5,799.3 366.9,800.3 367.1,801.3 367.3,802.0 367.4,802.1 367.3,801.6 367.2,800.8 367.0,799.8 366.7,799.1 366.4,798.8 366.1,799.0 365.8,799.8 365.6,800.7 365.4,801.6 365.1,802.1 364.9,802.1 364.8,801.5 364.7,800.7 364.7,799.7 364.7,799.0 364.8,798.8 365.1,799.1 365.3,799.8 365.6,800.6 366.0,801.4 366.3,801.9 366.5,801.8 366.7,801.3 366.9,800.5 366.9,799.7 366.9,799.1 366.9,799.0 366.9,799.3 366.8,800.0 366.6,801.0 366.5,802.0 366.3,802.9 366.1,803.7 365.9,804.4 365.7,804.9 365.5,805.3 365.4,805.8 365.3,806.5 365.3,807.4 365.4,808.5 365.5,809.6 365.7,810.8 365.9,811.9 366.1,812.8 366.4,813.5 366.6,814.2 366.8,814.7 367.1,815.4 367.3,816.3" fill="none" stroke="#0969da" stroke-width="1.2" stroke-opacity="0.8"/>
<polyline points="202.0,190.0 202.0,190.0 202.0,190.0 202.0,190.0 202.0,190.0 202.0,190.0 202.0,190.0 202.0,190.0 202.0,190.0 202.0,190.0 202.0,190.0 202.0,190.0 202.0,190.0 202.0,190.0 202.0,190.0 202.0,190.0 202.0,190.0 202.0,190.0 202.0,190.0 202.0,190.0 202.0,190.0 202.0,190.0 202.0,190.0 202.0,190.0 202.0,190.0 202.0,190.0 202.0,190.0 202.0,190.0 202.0,190.0 202.0,190.0 202.0,190.0 202.0,190.0 202.0,190.0 202.0,190.0 202.0,190.0 202.0,190.0 202.0,190.0 202.0,190.0 202.0,190.0 202.0,190.0 202.0,190.0 202.0,190.0 202.0,190.0 202.0,190.0 202.0,190.0 202.0,190.0 202.0,190.0 202.0,190.0 202.0,190.0 202.0,190.0 202.0,190.0 202.0,190.0 202.0,190.0 202.0,190.0 202.0,190.0 202.0,190.0 202.0,190.0 202.0,190.0 202.0,190.0 202.0,190.0 202.0,190.0 202.0,190.0 202.0,190.0 202.0,190.0 202.0,190.0 202.0,190.0 202.0,190.0 202.0,190.0 202.0,190.0 202.0,190.0 202.0,190.0 202.0,190.0 202.0,190.0 202.0,190.0 202.0,190.0 202.0,190.0 202.0,190.0 202.0,190.0 202.0,190.0 202.0,190.0 202.0,190.0 202.0,190.0 202.0,190.0 202.0,190.0 202.0,190.0 202.0,190.0 202.0,190.0 202.0,190.0 202.0,190.0 202.0,190.0 202.0,190.0 202.0,190.0 202.0,190.0 202.0,190.0 202.0,190.0 202.0,190.0 202.0,190.0 202.0,190.0 202.0,190.0 202.0,190.0 202.0,190.0 202.0,190.0 202.0,190.0 202.0,190.0 202.0,190.0 202.0,190.0 202.0,190.0 202.0,190.0 202.0,190.0 202.0,190.0 202.0,190.0 202.0,190.0 202.0,190.0 202.0,190.0 202.0,190.0 202.0,190.0 202.0,190.0 202.0,190.0 202.0,190.0 202.0,190.0 202.0,190.0 202.0,190.0 202.0,190.0 202.0,190.0 202.0,190.0 202.0,190.0 202.0,190.0 202.0,190.0 202.0,190.0 202.0,190.0 202.0,190.0 202.0,190.0 202.0,190.0 202.0,190.0 202.0,190.0 202.0,190.0 202.0,190.0 202.0,190.0 202.0,190.0 202.0,190.0 202.0,190.0 202.0,190.0 202.0,190.0 202.0,190.0 202.0,190.0 202.0,190.0 202.0,190.0 202.0,190.0 202.0,190.0 202.0,190.0 202.0,190.0 202.0,190.0 202.0,190.0 202.0,190.0 202.0,190.0 202.0,190.0 202.0,190.0 202.0,190.0 202.0,190.0 202.0,190.0 202.0,190.0 202.0,190.0 202.0,190.0 202.0,190.0 202.0,190.0 202.0,190.0 202.0,190.0 202.0,190.0 202.0,190.0 202.0,190.0 202.0,190.0 202.0,190.0 202.0,190.0 202.0,190.0 202.0,190.0 202.0,190.0 202.0,190.0 202.0,190.0 202.0,190.0 202.0,190.0 202.0,190.0 202.0,190.0 202.0,190.0 202.0,190.0 202.0,190.0 202.0,190.0 202.0,190.0 202.0,190.0 202.0,190.0 202.0,190.0 202.0,190.0 202.0,190.0 202.0,190.0 202.0,190.0 202.0,190.0 202.0,190.0 202.0,190.0 202.0,190.0 202.0,190.0 202.0,190.0 202.0,190.0 202.0,190.0 202.0,190.0 202.0,190.0 202.0,190.0 202.0,190.0 202.0,190.0 202.0,190.0 202.0,190.0 202.0,190.0 202.0,190.0 202.0,190.0 202.0,190.0 202.0,190.0 202.0,190.0 202.0,190.0 202.0,190.0 202.0,190.0 202.0,190.0 202.0,190.0 202.0,190.0 202.0,190.0 202.0,190.0 202.0,190.0 202.0,190.0 202.0,190.0 202.0,190.0 202.0,190.0 202.0,190.0 202.0,190.0 202.0,190.0 202.0,190.0 202.0,190.0 202.0,190.0 202.0,190.0 202.0,190.0 202.0,190.0 202.0,190.0 202.0,190.0 202.0,190.0 202.0,190.0 202.0,190.0 202.0,190.0 202.0,190.0 202.0,190.0 202.0,190.0 202.0,190.0 202.0,190.0 202.0,190.0 202.0,190.0 202.0,190.0 202.0,190.0 202.1,190.0 202.3,189.9 202.8,189.9 203.7,189.8 205.1,189.7 207.1,189.5 209.7,189.3 213.1,189.1 217.2,188.9 222.1,188.8 227.7,188.7 233.9,188.7 240.6,188.7 247.8,188.8 255.2,189.0 262.8,189.3 270.3,189.6 277.7,190.0 284.7,190.4 291.4,190.8 297.6,191.1 303.2,191.5 308.2,191.7 312.4,191.8 315.8,191.8 318.6,191.7 320.7,191.5 322.3,191.1 323.4,190.6 324.2,190.1 324.8,189.6 325.2,189.2 325.7,188.9 326.4,188.7 327.4,188.6 328.7,188.7 330.6,188.9 333.0,189.2 336.1,189.5 339.9,189.7 344.5,189.8 349.8,189.9 355.6,189.9 362.0,189.9 368.6,189.9 375.4,189.9 382.4,190.0 389.3,190.1 396.1,190.2 402.7,190.3 408.9,190.5 414.7,190.6 420.0,190.7 424.8,190.7 428.9,190.7 432.6,190.6 435.7,190.4 438.2,190.3 440.4,190.1 442.2,189.9 443.9,190.0 445.2,190.8 446.1,192.6 446.5,195.7 446.5,200.1 446.1,205.8 445.2,212.2 444.0,218.9 442.6,225.4 441.0,231.1 439.3,235.7 437.7,239.0 436.1,241.1 434.7,242.2 433.4,242.8 432.2,243.2 431.3,244.2 430.5,245.9 429.9,248.9 429.4,253.7 429.1,260.0 429.1,267.1 429.4,274.3 430.1,281.0 431.2,286.8 432.5,291.1 434.3,294.0 436.2,295.7 438.4,296.6 440.5,297.0 442.6,297.7 444.6,299.1 446.2,301.6 447.5,305.4 448.3,310.5 448.7,316.5 448.7,323.1 448.2,329.5 447.4,335.4 446.1,340.9 444.5,345.4 442.6,348.7 440.5,350.7 438.4,351.7 436.3,352.1 434.2,352.5 432.3,353.4 430.6,355.4 429.1,358.7 428.0,363.5 427.2,369.4 426.9,376.1 427.0,383.0 427.6,389.4 428.7,394.9 430.1,399.1 431.9,401.8 434.0,403.2 436.1,403.8 438.3,404.5 440.3,405.9 442.1,408.1 443.6,411.3 444.8,415.5 445.6,420.6 446.0,426.3 446.1,432.3 445.7,438.1 445.1,443.4 444.2,447.8 443.1,451.3 441.8,453.8 440.4,455.6 438.9,456.9 437.4,458.2 435.9,459.9 434.5,462.3 433.1,465.5 431.9,469.8 430.9,475.3 430.1,481.8 429.6,488.3 429.5,494.5 429.8,499.7 430.5,503.8 431.6,506.8 433.0,508.8 434.7,510.4 436.7,511.9 438.7,513.9 440.7,516.6 442.6,520.4 444.4,525.1 445.8,530.5 447.0,536.1 447.8,541.4 448.0,545.8 447.9,549.2 447.3,551.3 446.2,553.1 444.6,554.7 442.7,556.4 440.5,558.7 438.2,561.9 435.9,566.1 433.8,571.3 431.9,577.1 430.4,582.9 429.3,588.3 428.7,592.9 428.7,596.2 429.1,598.6 430.1,600.1 431.4,601.4 433.2,603.0 435.1,605.4 437.2,608.7 439.2,613.0 441.2,618.0 442.9,623.9 444.2,629.9 445.0,635.0 445.5,638.7 445.5,640.9 445.1,642.1 444.3,643.0 443.2,644.5 441.9,647.1 440.4,651.2 438.9,656.6 437.4,662.8 436.0,669.1 434.7,674.5 433.7,678.7 433.0,681.2 432.5,682.5 432.4,683.1 432.6,683.9 433.1,685.7 433.9,689.9 434.9,696.1 436.0,703.2 437.2,710.1 438.4,715.7 439.5,719.4 440.4,721.2 441.2,721.8 441.8,722.2 442.2,723.4 442.4,726.2 442.5,730.9 442.4,736.9 442.0,743.6 441.5,749.7 440.8,754.5 439.8,757.5 438.6,758.8 437.4,759.1 436.2,759.5 435.2,761.9 434.4,766.2 433.8,770.8 433.3,774.4 432.9,775.7 432.7,774.5 432.6,771.2 432.8,767.0 433.2,763.3 433.8,761.4 434.8,761.8 435.9,764.3 437.1,767.9 438.3,771.3 439.3,773.2 440.0,772.9 440.4,770.5 440.5,766.9 440.4,763.2 440.1,760.7 439.7,760.4 439.2,762.4 438.6,765.9 437.9,770.0 437.1,773.2 436.1,774.6 435.1,773.7 434.2,770.9 433.3,767.3 432.7,764.0 432.3,762.2 432.4,762.4 432.8,764.5 433.6,767.6 434.5,770.6 435.5,772.5 436.6,772.4 437.5,770.5 438.3,767.4 439.1,764.2 439.7,761.9 440.2,761.4 440.5,762.9 440.7,765.9 440.5,769.3 440.1,772.2 439.4,773.4 438.4,772.8 437.2,770.5 435.9,767.3 434.7,764.4 433.7,762.7 433.0,762.8 432.6,764.5 432.5,767.3 432.7,770.0 433.2,771.8 433.8,772.1 434.6,770.6 435.4,768.0 436.3,765.2 437.3,763.1 438.3,762.5 439.2,763.6 440.0,766.0 440.6,768.9 440.9,771.4 440.8,772.5 440.4,772.0 439.6,770.0 438.6,767.3 437.5,764.7 436.3,763.1 435.3,763.0 434.5,764.5 433.9,766.9 433.4,769.4 433.2,771.2 433.2,771.6 433.3,770.5 433.7,768.4 434.2,766.0 434.9,764.1 435.8,763.4 436.8,764.2 437.8,766.2 438.7,768.7 439.5,770.8 440.0,771.9 440.1,771.5 440.0,769.7 439.7,767.3 439.1,764.9 438.4,763.4 437.7,763.2 436.9,764.4 436.2,766.5 435.6,768.9 435.0,770.5 434.6,771.1 434.2,770.3 433.9,768.6 433.9,766.5 434.0,764.9 434.4,764.2 434.9,764.8 435.6,766.4 436.4,768.6 437.1,770.4 437.8,771.4 438.3,771.1 438.6,769.6 438.8,767.4 438.8,765.3 438.7,763.8 438.6,763.6 438.3,764.5 438.0,766.3 437.7,768.4 437.2,770.0 436.7,770.6 436.2,770.1 435.6,768.6 435.2,766.8 434.8,765.4 434.6,764.7 434.6,765.1 434.7,766.5 435.0,768.4 435.4,770.0 435.8,770.9 436.2,770.7 436.6,769.5 437.0,767.6 437.3,765.7 437.6,764.3 437.9,764.0 438.2,764.8 438.4,766.3 438.5,768.1 438.4,769.5 438.3,770.2 438.0,769.8 437.6,768.6 437.0,767.0 436.5,765.7 436.0,765.0 435.6,765.3 435.3,766.5 435.1,768.1 435.0,769.6 435.0,770.6 435.1,770.8 435.2,770.5 435.4,770.0 435.7,769.6 436.1,769.8 436.6,770.8 437.1,772.5 437.6,774.5 438.0,776.4 438.3,778.0 438.4,778.9 438.4,779.1 438.3,778.9 438.0,778.6 437.6,778.8 437.2,779.6 436.7,781.0 436.2,782.9 435.8,785.1 435.3,786.9 434.9,787.8 434.6,787.4 434.3,785.8 434.1,783.7 434.1,781.7 434.3,780.6 434.7,780.7 435.2,781.9 435.9,783.8 436.6,785.8 437.3,787.0 437.8,787.1 438.1,786.1 438.3,784.4 438.3,782.5 438.3,781.2 438.1,781.0 437.8,781.8 437.5,783.5 437.1,785.4 436.6,786.7 436.0,787.2 435.4,786.5 434.9,784.9 434.5,783.1 434.2,781.6 434.1,781.0 434.2,781.4 434.5,782.8 435.0,784.6 435.5,786.1 436.1,786.9 436.6,786.7 437.0,785.5 437.4,783.9 437.7,782.3 437.9,781.4 438.0,781.5 438.0,782.5 438.0,784.0 437.8,785.5 437.5,786.5 437.1,786.5 436.5,785.6 436.0,784.2 435.5,782.6 435.0,781.5 434.7,781.4 434.6,782.1 434.6,783.5 434.8,785.1 435.0,786.3 435.3,786.7 435.6,786.2 436.0,785.0 436.3,783.5 436.6,782.3 436.9,781.7 437.2,782.0 437.5,783.1 437.7,784.5 437.8,785.6 437.7,786.2 437.5,785.9 437.2,784.9 436.9,783.6 436.5,782.3 436.1,781.6 435.8,781.8 435.6,782.7 435.4,784.0 435.4,785.4 435.3,786.2 435.3,786.3 435.3,785.8 435.4,785.0 435.6,784.3 435.8,784.4 436.1,785.5 436.5,787.3 436.9,789.6 437.3,791.8 437.6,793.3 437.7,794.0 437.8,793.9 437.7,793.3 437.6,792.7 437.5,792.7 437.3,793.4 437.1,795.1 437.0,797.2 436.8,799.5 436.6,801.4 436.4,802.7 436.1,803.3 435.9,802.9 435.6,801.7 435.4,800.1 435.3,798.9 435.3,798.2 435.5,798.5 435.7,799.5 436.1,800.9 436.5,802.1 436.8,802.8 437.1,802.5 437.3,801.5 437.5,800.1 437.6,798.8 437.7,798.0 437.7,798.1 437.7,799.0 437.7,800.4 437.6,801.8 437.4,802.6 437.1,802.8 436.7,802.1 436.3,800.9 435.9,799.6 435.6,798.7 435.4,798.5 435.3,799.1 435.3,800.2 435.5,801.4 435.7,802.3 436.0,802.6 436.2,802.1 436.5,801.0 436.7,799.7 437.0,798.7 437.3,798.3 437.6,798.7 437.8,799.6 437.9,800.9 438.0,802.0 437.9,802.4 437.7,802.2 437.4,801.4 437.0,800.3 436.6,799.2 436.2,798.7 435.9,798.9 435.7,799.6 435.5,800.7 435.5,801.7 435.5,802.3 435.5,802.2 435.6,801.6 435.8,800.5 436.0,799.5 436.3,798.8 436.7,798.7 437.0,799.3 437.4,800.3 437.7,801.3 437.9,802.0 438.0,802.2 437.9,801.7 437.8,800.8 437.5,799.8 437.2,799.0 436.9,798.8 436.6,799.2 436.3,800.0 436.1,801.0 435.9,801.8 435.7,802.1 435.6,801.9 435.6,801.1 435.6,800.3 435.7,799.8 435.9,800.1 436.3,801.3 436.6,803.2 437.1,805.5 437.4,807.6 437.7,809.0 437.8,809.5 437.8,809.3 437.7,808.7 437.6,808.3 437.4,808.4 437.2,809.4 437.0,811.2 436.8,813.3 436.6,815.4 436.3,817.0" fill="none" stroke="#1a7f37" stroke-width="1.2" stroke-opacity="0.8"/>
<polyline points="202.0,190.0 202.0,190.0 202.0,190.0 202.0,190.0 202.0,190.0 202.0,190.0 202.0,190.0 202.0,190.0 202.0,190.0 202.0,190.0 202.0,190.0 202.0,190.0 202.0,190.0 202.0,190.0 202.0,190.0 202.0,190.0 202.0,190.0 202.0,190.0 202.0,190.0 202.0,190.0 202.0,190.0 202.0,190.0 202.0,190.0 202.0,190.0 202.0,190.0 202.0,190.0 202.0,190.0 202.0,190.0 202.0,190.0 202.0,190.0 202.0,190.0 202.0,190.0 202.0,190.0 202.0,190.0 202.0,190.0 202.0,190.0 202.0,190.0 202.0,190.0 202.0,190.0 202.0,190.0 202.0,190.0 202.0,190.0 202.0,190.0 202.0,190.0 202.0,190.0 202.0,190.0 202.0,190.0 202.0,190.0 202.0,190.0 202.0,190.0 202.0,190.0 202.0,190.0 202.0,190.0 202.0,190.0 202.0,190.0 202.0,190.0 202.0,190.0 202.0,190.0 202.0,190.0 202.0,190.0 202.0,190.0 202.0,190.0 202.0,190.0 202.0,190.0 202.0,190.0 202.0,190.0 202.0,190.0 202.0,190.0 202.0,190.0 202.0,190.0 202.0,190.0 202.0,190.0 202.0,190.0 202.0,190.0 202.0,190.0 202.0,190.0 202.0,190.0 202.0,190.0 202.0,190.0 202.0,190.0 202.0,190.0 202.0,190.0 202.0,190.0 202.0,190.0 202.0,190.0 202.0,190.0 202.0,190.0 202.0,190.0 202.0,190.0 202.0,190.0 202.0,190.0 202.0,190.0 202.0,190.0 202.0,190.0 202.0,190.0 202.0,190.0 202.0,190.0 202.0,190.0 202.0,190.0 202.0,190.0 202.0,190.0 202.0,190.0 202.0,190.0 202.0,190.0 202.0,190.0 202.0,190.0 202.0,190.0 202.0,190.0 202.0,190.0 202.0,190.0 202.0,190.0 202.0,190.0 202.0,190.0 202.0,190.0 202.0,190.0 202.0,190.0 202.0,190.0 202.0,190.0 202.0,190.0 202.0,190.0 202.0,190.0 202.0,190.0 202.0,190.0 202.0,190.0 202.0,190.0 202.0,190.0 202.0,190.0 202.0,190.0 202.0,190.0 202.0,190.0 202.0,190.0 202.0,190.0 202.0,190.0 202.0,190.0 202.0,190.0 202.0,190.0 202.0,190.0 202.0,190.0 202.0,190.0 202.0,190.0 202.0,190.0 202.0,190.0 202.0,190.0 202.0,190.0 202.0,190.0 202.0,190.0 202.0,190.0 202.0,190.0 202.0,190.0 202.0,190.0 202.0,190.0 202.0,190.0 202.0,190.0 202.0,190.0 202.0,190.0 202.0,190.0 202.0,190.0 202.0,190.0 202.0,190.0 202.0,190.0 202.0,190.0 202.0,190.0 202.0,190.0 202.0,190.0 202.0,190.0 202.0,190.0 202.0,190.0 202.0,190.0 202.0,190.0 202.0,190.0 202.0,190.0 202.0,190.0 202.0,190.0 202.0,190.0 202.0,190.0 202.0,190.0 202.0,190.0 202.0,190.0 202.0,190.0 202.0,190.0 202.0,190.0 202.0,190.0 202.0,190.0 202.0,190.0 202.0,190.0 202.0,190.0 202.0,190.0 202.0,190.0 202.0,190.0 202.0,190.0 202.0,190.0 202.0,190.0 202.0,190.0 202.0,190.0 202.0,190.0 202.0,190.0 202.0,190.0 202.0,190.0 202.0,190.0 202.0,190.0 202.0,190.0 202.0,190.0 202.0,190.0 202.0,190.0 202.0,190.0 202.0,190.0 202.0,190.0 202.0,190.0 202.0,190.0 202.0,190.0 202.0,190.0 202.0,190.0 202.0,190.0 202.0,190.0 202.0,190.0 202.0,190.0 202.0,190.0 202.0,190.0 202.0,190.0 202.0,190.0 202.0,190.0 202.0,190.0 202.0,190.0 202.0,190.0 202.0,190.0 202.0,190.0 202.0,190.0 202.0,190.0 202.0,190.0 202.0,190.0 202.0,190.0 202.0,190.0 202.0,190.0 202.0,190.0 202.0,190.0 202.0,190.0 202.0,190.0 202.0,190.0 202.0,190.0 202.0,190.0 202.0,190.0 202.0,190.0 202.0,190.0 202.0,190.0 202.0,190.0 202.0,190.0 202.0,190.0 202.0,190.0 202.0,190.0 202.0,190.0 202.0,190.0 202.0,190.0 202.0,190.0 202.1,190.1 202.3,190.1 202.6,190.2 203.1,190.4 203.7,190.6 204.5,190.8 205.6,191.1 206.9,191.3 208.4,191.6 210.2,191.8 212.2,192.0 214.4,192.2 217.0,192.4 219.8,192.6 222.9,192.8 226.3,193.1 229.9,193.3 233.9,193.6 238.2,193.9 243.1,194.2 248.4,194.3 254.4,194.2 261.0,193.8 268.3,193.1 276.2,192.0 284.8,190.6 294.0,189.0 303.7,187.3 313.6,185.7 323.7,184.5 333.6,183.8 343.2,183.9 352.1,184.8 360.2,186.6 367.1,189.1 372.7,192.1 376.7,195.3 379.0,198.3 379.5,200.8 378.4,202.3 375.9,202.5 372.2,201.4 367.6,198.8 362.4,195.2 357.0,191.0 351.7,186.6 346.7,182.8 342.6,180.0 339.5,178.6 337.7,178.7 337.4,180.3 338.9,182.9 342.0,186.2 347.0,189.5 353.6,192.3 361.8,194.3 371.3,195.1 381.9,194.9 393.2,193.7 404.8,192.5 416.1,192.0 426.4,193.1 435.4,196.2 442.7,201.6 448.0,208.9 451.2,217.6 452.4,226.6 451.5,235.0 448.9,242.0 444.6,246.8 439.0,249.2 432.3,249.3 424.7,247.5 416.5,244.5 408.0,241.5 399.4,239.4 391.1,239.2 383.3,241.7 376.4,247.5 370.5,255.9 366.0,265.8 363.2,276.2 362.1,286.0 362.8,294.1 365.3,300.1 369.5,303.4 375.2,304.4 382.0,303.6 389.8,301.8 398.0,300.1 406.2,299.2 414.2,300.0 421.4,302.9 427.8,307.9 432.9,314.7 436.7,322.5 439.0,330.6 439.8,338.4 439.1,345.4 436.9,350.6 433.4,353.8 428.8,354.9 423.2,354.4 416.9,353.1 410.1,351.9 403.1,351.8 396.2,353.5 389.6,357.5 383.8,363.7 378.9,371.7 375.2,380.7 372.8,389.8 372.0,397.9 372.6,404.1 374.8,407.9 378.2,409.3 382.8,408.4 388.3,406.3 394.4,404.4 400.7,403.2 407.0,403.4 413.0,405.6 418.4,409.8 423.0,416.1 426.5,423.8 429.0,432.3 430.2,440.8 430.3,448.4 429.1,454.4 426.9,458.7 423.6,461.0 419.5,461.8 414.7,461.7 409.4,461.3 403.9,461.4 398.3,462.6 393.0,465.4 388.1,470.1 383.9,476.7 380.7,484.4 378.4,492.1 377.4,499.1 377.5,504.7 378.8,508.5 381.3,510.6 384.7,511.2 389.0,511.0 393.9,511.0 399.1,511.8 404.6,514.2 409.9,518.4 414.8,524.5 419.1,531.9 422.7,539.7 425.2,547.0 426.8,552.9 427.1,556.7 426.3,558.6 424.2,559.2 421.1,558.9 417.2,558.4 412.6,558.6 407.6,560.3 402.5,563.9 397.6,569.2 393.1,575.9 389.2,583.0 386.2,589.7 384.1,595.1 383.0,598.8 383.0,600.9 384.0,601.8 386.1,602.3 389.1,603.1 392.9,605.2 397.3,608.8 401.9,614.1 406.6,620.8 411.1,628.7 415.0,635.9 418.2,641.3 420.4,644.3 421.6,644.9 421.8,643.8 421.0,642.3 419.1,641.6 416.6,642.9 413.4,646.6 409.7,652.8 405.8,660.5 401.8,668.7 397.9,676.2 394.2,682.0 391.0,685.5 388.4,686.9 386.5,687.0 385.6,686.8 385.6,687.9 386.7,691.7 388.7,697.7 391.6,705.2 395.1,712.9 398.8,719.8 402.7,724.9 406.5,727.7 409.9,728.5 412.8,728.0 415.1,727.2 416.8,727.5 417.7,729.6 417.8,734.0 417.1,740.2 415.6,747.5 413.4,754.7 410.5,760.6 407.1,764.6 403.4,766.6 399.6,767.6 396.0,768.8 392.9,769.8 390.4,770.5 388.7,770.9 387.8,770.8 387.9,770.3 388.8,769.5 390.7,768.5 393.2,767.6 396.3,766.8 399.7,766.2 403.2,765.9 406.7,765.8 409.8,765.7 412.4,765.7 414.3,765.7 415.5,765.7 415.8,765.8 415.2,766.0 413.9,766.5 411.8,767.1 409.2,767.9 406.2,768.7 403.0,769.3 399.7,769.8 396.7,769.9 394.1,769.7 391.9,769.1 390.5,768.4 389.8,767.6 390.0,767.0 390.9,766.5 392.5,766.3 394.7,766.3 397.4,766.4 400.3,766.6 403.3,766.7 406.2,766.8 408.8,766.8 411.0,766.8 412.6,766.9 413.5,767.2 413.7,767.6 413.2,768.0 412.0,768.4 410.3,768.7 408.0,768.9 405.3,768.7 402.6,768.3 399.8,767.8 397.2,767.2 395.0,766.7 393.3,766.3 392.1,766.3 391.7,766.5 391.9,766.8 392.7,767.2 394.1,767.5 396.0,767.8 398.3,767.9 400.8,767.9 403.4,767.8 405.8,767.8 408.0,767.8 409.8,767.9 411.2,768.1 411.9,768.2 412.0,768.2 411.6,768.0 410.5,767.6 408.9,767.2 406.9,766.6 404.7,766.2 402.3,765.9 400.0,765.9 397.8,766.1 396.0,766.6 394.6,767.1 393.7,767.7 393.3,768.2 393.5,768.5 394.3,768.6 395.5,768.6 397.2,768.5 399.1,768.3 401.3,768.2 403.4,768.1 405.5,768.1 407.4,767.9 408.9,767.7 409.9,767.4 410.5,767.0 410.6,766.5 410.1,766.1 409.1,765.8 407.7,765.7 406.0,765.8 404.2,766.2 402.2,766.8 400.2,767.4 398.4,768.0 396.9,768.5 395.7,768.7 395.0,768.9 394.7,768.8 394.9,768.6 395.5,768.5 396.7,768.3 398.1,768.1 399.8,767.9 401.6,767.8 403.5,767.5 405.2,767.2 406.7,766.8 408.0,766.4 408.8,766.1 409.3,765.9 409.3,765.9 408.8,766.1 408.0,766.5 406.8,767.0 405.4,767.6 403.8,768.1 402.0,768.4 400.4,768.6 398.9,768.6 397.6,768.5 396.6,768.3 396.0,768.1 395.8,768.0 396.0,767.8 396.7,767.7 397.6,767.6 398.9,767.4 400.3,767.2 401.8,766.9 403.4,766.6 404.9,766.4 406.1,766.3 407.2,766.4 407.9,766.6 408.2,767.0 408.2,767.4 407.8,767.8 407.1,768.1 406.0,768.3 404.8,768.3 403.4,768.2 401.9,768.0 400.5,767.7 399.2,767.6 398.2,767.7 397.4,768.2 396.9,769.0 396.8,770.1 396.9,771.4 397.3,772.6 398.0,773.6 398.7,774.4 399.7,774.9 400.6,775.3 401.5,775.7 402.3,776.4 403.0,777.3 403.5,778.5 403.8,779.8 403.7,781.3 403.4,782.5 402.8,783.5 402.0,784.4 400.9,785.1 399.7,785.5 398.3,785.4 397.0,784.9 395.7,784.1 394.6,783.2 393.7,782.5 393.1,782.2 392.9,782.4 393.0,783.1 393.4,784.0 394.2,784.9 395.1,785.5 396.2,785.6 397.4,785.4 398.6,784.8 399.7,784.0 400.8,783.3 401.7,782.9 402.4,782.9 402.8,783.3 403.0,783.9 402.9,784.4 402.5,784.8 401.8,784.8 400.9,784.5 399.8,783.8 398.6,783.1 397.4,782.6 396.3,782.3 395.3,782.6 394.6,783.2 394.1,784.0 393.8,784.9 393.8,785.5 394.1,785.8 394.6,785.6 395.2,785.1 396.1,784.4 397.1,783.7 398.1,783.2 399.2,783.1 400.2,783.2 401.1,783.6 401.7,784.1 402.2,784.4 402.4,784.5 402.3,784.3 402.0,783.8 401.4,783.2 400.7,782.7 399.7,782.5 398.8,782.7 397.8,783.2 396.9,783.9 396.1,784.7 395.4,785.3 394.9,785.6 394.5,785.6 394.4,785.2 394.5,784.6 394.9,783.9 395.4,783.4 396.1,783.2 397.0,783.2 398.0,783.5 398.9,783.9 399.8,784.3 400.6,784.4 401.2,784.3 401.6,783.9 401.7,783.4 401.7,783.0 401.4,782.8 401.0,782.8 400.4,783.2 399.8,784.0 399.0,785.2 398.3,786.5 397.6,788.0 396.9,789.3 396.4,790.4 396.0,791.2 395.8,791.7 395.8,792.0 396.0,792.2 396.4,792.6 397.0,793.2 397.7,794.1 398.6,795.3 399.5,796.5 400.5,797.8 401.4,798.8 402.2,799.6 402.8,800.2 403.3,800.8 403.7,801.3 403.7,801.5 403.6,801.3 403.2,800.9 402.7,800.4 402.1,800.0 401.4,799.7 400.6,799.8 399.9,800.1 399.2,800.5 398.6,801.0 398.1,801.3 397.8,801.3 397.6,801.0 397.6,800.5 397.8,800.0 398.1,799.6 398.6,799.5 399.2,799.6 399.9,800.0 400.7,800.6 401.4,801.1 402.0,801.4 402.5,801.4 402.9,801.2 403.1,800.7 403.2,800.2 403.0,799.8 402.7,799.6 402.3,799.7 401.8,800.0 401.3,800.4 400.7,800.8 400.0,801.0 399.4,801.0 398.9,800.8 398.4,800.4 398.1,800.0 398.0,799.8 398.0,799.8 398.2,800.0 398.5,800.4 399.0,800.9 399.5,801.3 400.1,801.5 400.7,801.4 401.3,801.1 401.8,800.6 402.2,800.1 402.5,799.8 402.7,799.6 402.8,799.7 402.7,800.0 402.5,800.4 402.1,800.7 401.7,800.8 401.2,800.8 400.6,800.6 400.0,800.3 399.4,800.0 399.0,799.9 398.6,800.0 398.4,800.2 398.3,800.6 398.4,801.0 398.6,801.3 398.9,801.4 399.3,801.3 399.7,800.9 400.2,800.5 400.7,800.1 401.2,799.8 401.6,799.7 402.0,799.8 402.3,800.1 402.5,800.6 402.6,801.3 402.5,802.2 402.4,803.2 402.2,804.3 402.0,805.4 401.7,806.4 401.4,807.2 401.1,808.0 400.9,808.7 400.7,809.3 400.6,810.1 400.6,810.9 400.8,811.8 401.0,812.8 401.4,813.8 401.8,814.7 402.3,815.6 402.8,816.4" fill="none" stroke="#bf8700" stroke-width="1.2" stroke-opacity="0.8"/>
<polyline points="202.0,190.0 202.0,190.0 202.0,190.0 202.0,190.0 202.0,190.0 202.0,190.0 202.0,190.0 202.0,190.0 202.0,190.0 202.0,190.0 202.0,190.0 202.0,190.0 202.0,190.0 202.0,190.0 202.0,190.0 202.0,190.0 202.0,190.0 202.0,190.0 202.0,190.0 202.0,190.0 202.0,190.0 202.0,190.0 202.0,190.0 202.0,190.0 202.0,190.0 202.0,190.0 202.0,190.0 202.0,190.0 202.0,190.0 202.0,190.0 202.0,190.0 202.0,190.0 202.0,190.0 202.0,190.0 202.0,190.0 202.0,190.0 202.0,190.0 202.0,190.0 202.0,190.0 202.0,190.0 202.0,190.0 202.0,190.0 202.0,190.0 202.0,190.0 202.0,190.0 202.0,190.0 202.0,190.0 202.0,190.0 202.0,190.0 202.0,190.0 202.0,190.0 202.0,190.0 202.0,190.0 202.0,190.0 202.0,190.0 202.0,190.0 202.0,190.0 202.0,190.0 202.0,190.0 202.0,190.0 202.0,190.0 202.0,190.0 202.0,190.0 202.0,190.0 202.0,190.0 202.0,190.0 202.0,190.0 202.0,190.0 202.0,190.0 202.0,190.0 202.0,190.0 202.0,190.0 202.0,190.0 202.0,190.0 202.0,190.0 202.0,190.0 202.0,190.0 202.0,190.0 202.0,190.0 202.0,190.0 202.0,190.0 202.0,190.0 202.0,190.0 202.0,190.0 202.0,190.0 202.0,190.0 202.0,190.0 202.0,190.0 202.0,190.0 202.0,190.0 202.0,190.0 202.0,190.0 202.0,190.0 202.0,190.0 202.0,190.0 202.0,190.0 202.0,190.0 202.0,190.0 202.0,190.0 202.0,190.0 202.0,190.0 202.0,190.0 202.0,190.0 202.0,190.0 202.0,190.0 202.0,190.0 202.0,190.0 202.0,190.0 202.0,190.0 202.0,190.0 202.0,190.0 202.0,190.0 202.0,190.0 202.0,190.0 202.0,190.0 202.0,190.0 202.0,190.0 202.0,190.0 202.0,190.0 202.0,190.0 202.0,190.0 202.0,190.0 202.0,190.0 202.0,190.0 202.0,190.0 202.0,190.0 202.0,190.0 202.0,190.0 202.0,190.0 202.0,190.0 202.0,190.0 202.0,190.0 202.0,190.0 202.0,190.0 202.0,190.0 202.0,190.0 202.0,190.0 202.0,190.0 202.0,190.0 202.0,190.0 202.0,190.0 202.0,190.0 202.0,190.0 202.0,190.0 202.0,190.0 202.0,190.0 202.0,190.0 202.0,190.0 202.0,190.0 202.0,190.0 202.0,190.0 202.0,190.0 202.0,190.0 202.0,190.0 202.0,190.0 202.0,190.0 202.0,190.0 202.0,190.0 202.0,190.0 202.0,190.0 202.0,190.0 202.0,190.0 202.0,190.0 202.0,190.0 202.0,190.0 202.0,190.0 202.0,190.0 202.0,190.0 202.0,190.0 202.0,190.0 202.0,190.0 202.0,190.0 202.0,190.0 202.0,190.0 202.0,190.0 202.0,190.0 202.0,190.0 202.0,190.0 202.0,190.0 202.0,190.0 202.0,190.0 202.0,190.0 202.0,190.0 202.0,190.0 202.0,190.0 202.0,190.0 202.0,190.0 202.0,190.0 202.0,190.0 202.0,190.0 202.0,190.0 202.0,190.0 202.0,190.0 202.0,190.0 202.0,190.0 202.0,190.0 202.0,190.0 202.0,190.0 202.0,190.0 202.0,190.0 202.0,190.0 202.0,190.0 202.0,190.0 202.0,190.0 202.0,190.0 202.0,190.0 202.0,190.0 202.0,190.0 202.0,190.0 202.0,190.0 202.0,190.0 202.0,190.0 202.0,190.0 202.0,190.0 202.0,190.0 202.0,190.0 202.0,190.0 202.0,190.0 202.0,190.0 202.0,190.0 202.0,190.0 202.0,190.0 202.0,190.0 202.0,190.0 202.0,190.0 202.0,190.0 202.0,190.0 202.0,190.0 202.0,190.0 202.0,190.0 202.0,190.0 202.0,190.0 202.0,190.0 202.0,190.0 202.0,190.0 202.0,190.0 202.0,190.0 202.0,190.0 202.0,190.0 202.0,190.0 202.0,190.0 202.0,190.0 202.0,190.0 202.0,190.0 202.0,190.0 202.0,190.0 202.0,190.0 202.0,190.0 202.0,190.0 202.0,190.0 202.0,190.0 202.0,190.0 202.1,190.0 202.3,190.0 202.7,189.9 203.6,189.9 204.8,189.8 206.6,189.7 209.0,189.6 212.0,189.4 215.7,189.3 220.1,189.2 225.0,189.1 230.5,189.1 236.4,189.1 242.7,189.2 249.2,189.3 255.8,189.4 262.3,189.7 268.6,189.9 274.6,190.2 280.2,190.6 285.3,190.9 289.7,191.2 293.6,191.4 296.7,191.5 299.3,191.4 301.1,191.2 302.4,190.9 303.2,190.4 303.7,189.9 303.9,189.3 304.1,188.9 304.3,188.6 304.6,188.4 305.2,188.4 306.2,188.6 307.7,188.9 309.7,189.2 312.3,189.6 315.5,190.0 319.4,190.3 324.0,190.4 329.2,190.4 334.8,190.4 340.8,190.3 346.9,190.2 353.1,190.2 359.3,190.2 365.4,190.2 371.1,190.4 376.6,190.6 381.6,190.8 386.2,190.9 390.2,191.0 393.8,190.9 396.8,190.8 399.3,190.5 401.3,190.2 402.9,189.8 404.2,189.4 405.4,189.1 406.4,189.1 407.2,190.0 407.8,191.9 408.1,195.4 408.2,200.2 408.0,206.3 407.6,213.2 407.0,220.3 406.4,227.2 405.6,233.1 404.9,237.9 404.3,241.3 403.6,243.5 403.1,244.5 402.6,245.0 402.1,245.3 401.7,246.2 401.4,247.9 401.1,250.9 400.8,255.8 400.5,262.2 400.3,269.6 400.1,277.1 400.1,284.1 400.2,290.1 400.5,294.7 401.0,297.8 401.6,299.7 402.3,300.6 403.0,301.1 403.8,301.7 404.6,303.0 405.2,305.4 405.8,309.1 406.2,314.1 406.4,320.1 406.5,326.7 406.5,333.2 406.3,339.3 405.9,344.9 405.4,349.6 404.9,353.1 404.2,355.1 403.5,356.1 402.7,356.5 402.0,356.9 401.3,358.0 400.6,360.2 400.0,363.8 399.5,368.9 399.2,375.2 398.9,382.2 398.9,389.4 399.0,396.1 399.4,401.8 399.9,406.1 400.6,408.8 401.4,410.2 402.2,410.7 403.1,411.4 403.9,412.7 404.6,414.8 405.2,417.9 405.6,422.1 405.9,427.2 406.0,433.1 406.0,439.4 405.9,445.5 405.6,451.1 405.3,455.9 405.0,459.6 404.6,462.3 404.1,464.2 403.7,465.7 403.2,467.2 402.8,469.0 402.4,471.5 401.9,475.1 401.6,479.4 401.2,485.2 400.9,491.7 400.6,498.3 400.5,504.5 400.5,509.7 400.7,513.8 401.1,516.8 401.5,518.9 402.1,520.5 402.8,522.0 403.5,524.1 404.2,527.0 405.0,530.9 405.6,535.8 406.2,541.4 406.6,547.1 406.9,552.3 407.1,556.7 407.0,559.9 406.8,561.9 406.3,563.7 405.7,565.5 404.9,567.6 404.1,570.2 403.3,573.8 402.5,578.2 401.8,583.5 401.3,589.2 401.0,594.8 400.9,599.8 400.9,604.0 401.2,607.2 401.6,609.5 402.2,611.2 403.0,612.9 403.8,615.0 404.6,617.9 405.3,621.8 406.1,626.4 406.6,631.6 406.9,637.7 407.0,643.8 406.8,648.9 406.3,652.5 405.5,654.8 404.5,656.2 403.4,657.5 402.2,659.4 401.0,662.5 399.9,667.0 398.9,672.8 398.2,679.0 397.6,684.8 397.3,689.7 397.2,693.2 397.4,695.2 397.8,696.3 398.4,697.1 399.3,698.6 400.4,701.4 401.6,706.7 402.9,713.0 404.1,718.6 405.1,721.5 405.8,721.1 406.3,717.5 406.5,712.0 406.3,706.4 406.0,702.5 405.4,701.5 404.8,703.6 404.0,708.1 403.1,713.2 402.1,717.3 401.2,718.9 400.3,717.4 399.5,713.4 398.8,708.3 398.4,703.6 398.4,701.1 398.5,701.5 399.0,704.8 399.7,710.0 400.6,715.4 401.5,719.3 402.4,720.5 403.3,718.8 404.0,714.6 404.6,709.5 405.0,704.9 405.2,702.5 405.3,702.8 405.3,705.6 405.1,709.9 404.8,714.2 404.2,717.0 403.6,717.3 402.8,715.2 401.9,711.2 401.1,706.8 400.4,703.5 399.9,702.5 399.6,704.0 399.5,707.8 399.5,712.5 399.8,716.7 400.1,719.1 400.6,719.0 401.1,716.3 401.6,712.0 402.1,707.5 402.7,704.2 403.3,703.0 403.8,704.3 404.3,707.5 404.6,711.5 404.9,714.8 404.9,716.5 404.7,715.9 404.3,713.3 403.9,709.6 403.3,706.1 402.7,704.0 402.1,704.1 401.6,706.4 401.1,710.1 400.7,714.1 400.4,717.1 400.2,718.2 400.1,716.9 400.1,713.8 400.2,709.8 400.4,706.2 400.8,704.1 401.3,704.1 401.8,706.1 402.5,709.4 403.1,712.8 403.7,715.2 404.1,715.8 404.4,714.5 404.5,711.7 404.5,708.5 404.4,705.9 404.1,704.9 403.8,705.8 403.4,708.4 402.9,711.8 402.4,714.9 401.9,716.8 401.4,716.7 400.9,714.8 400.4,711.6 400.1,708.1 399.9,705.5 399.9,704.5 400.1,705.4 400.5,707.8 401.0,710.9 401.6,713.6 402.1,715.2 402.7,715.0 403.2,713.2 403.6,710.6 403.9,707.9 404.2,706.1 404.3,705.9 404.4,707.4 404.3,710.0 404.1,712.9 403.7,715.1 403.3,716.0 402.7,715.1 402.1,712.8 401.6,709.8 401.1,707.0 400.6,705.4 400.3,705.3 400.2,706.8 400.2,709.4 400.4,712.1 400.7,714.2 401.0,714.9 401.4,714.1 401.8,712.2 402.3,709.7 402.7,707.6 403.1,706.6 403.5,707.0 403.8,708.7 404.1,711.1 404.2,713.4 404.1,714.8 403.9,714.9 403.6,713.5 403.2,711.1 402.7,708.5 402.3,706.5 401.8,705.8 401.5,706.4 401.2,708.2 401.0,710.7 400.8,713.0 400.8,714.3 400.8,714.4 400.9,713.2 401.1,711.2 401.3,709.1 401.6,707.6 402.0,707.2 402.4,708.1 402.8,710.0 403.1,712.4 403.5,714.8 403.7,716.5 403.8,717.2 403.9,716.9 403.9,716.0 403.7,714.9 403.6,714.4 403.4,714.8 403.2,716.4 403.1,718.7 402.9,721.5 402.8,724.0 402.6,725.8 402.5,726.5 402.4,726.3 402.4,725.6 402.4,724.9 402.5,724.9 402.6,725.7 402.9,727.1 403.1,728.6 403.4,729.6 403.6,729.7 403.8,729.0 404.0,727.5 404.1,725.9 404.2,724.5 404.3,723.9 404.3,724.2 404.3,725.4 404.3,726.9 404.2,728.4 404.0,729.4 403.8,729.6 403.6,728.9 403.3,727.6 403.0,726.3 402.8,725.3 402.6,725.1 402.5,725.6 402.5,726.6 402.5,727.9 402.6,728.9 402.7,729.3 402.9,728.9 403.1,727.8 403.3,726.4 403.5,725.1 403.7,724.4 403.9,724.5 404.1,725.3 404.3,726.6 404.4,728.0 404.5,729.0 404.4,729.4 404.3,729.0 404.1,728.0 403.9,726.7 403.6,725.7 403.4,725.3 403.1,725.5 402.9,726.2 402.7,727.3 402.6,728.3 402.5,728.9 402.5,728.8 402.5,728.0 402.6,726.9 402.7,725.7 402.9,724.9 403.2,724.8 403.5,725.3 403.7,726.4 404.0,727.6 404.2,728.6 404.4,729.1 404.5,728.9 404.4,728.2 404.4,727.1 404.2,726.1 404.0,725.5 403.8,725.4 403.6,726.0 403.3,726.9 403.1,727.8 402.9,728.5 402.8,728.6 402.6,728.1 402.5,727.2 402.5,726.2 402.6,725.4 402.7,725.1 402.9,725.5 403.1,726.4 403.4,727.8 403.6,729.5 403.9,731.1 404.1,732.3 404.2,733.1 404.3,733.5 404.3,733.6 404.2,733.6 404.0,733.9 403.8,734.5 403.6,735.6 403.4,737.1 403.1,738.6 402.9,740.0 402.6,741.0 402.4,741.6 402.2,741.8 402.0,742.0 401.9,742.5 401.9,743.3 402.0,744.2 402.1,744.9 402.2,745.2 402.3,744.9 402.5,744.3 402.6,743.4 402.8,742.7 403.0,742.4 403.1,742.5 403.3,742.9 403.4,743.6 403.4,744.2 403.4,744.5 403.4,744.4 403.3,743.9 403.2,743.2 403.0,742.5 402.8,742.2 402.7,742.2 402.6,742.7 402.4,743.4 402.4,744.2 402.3,744.8 402.2,745.0 402.2,744.7 402.2,744.1 402.3,743.4 402.3,742.8 402.4,742.5 402.5,742.6 402.7,743.1 402.8,743.7 403.0,744.2 403.1,744.4 403.2,744.3 403.2,743.8 403.3,743.2 403.3,742.6 403.2,742.3 403.2,742.4 403.1,742.9 403.0,743.6 402.9,744.2 402.8,744.7 402.6,744.8 402.5,744.5 402.4,743.9 402.3,743.3 402.2,742.8 402.2,742.6 402.2,742.8 402.3,743.2 402.4,743.7 402.5,744.1 402.6,744.3 402.8,744.1 402.9,743.7 403.0,743.2 403.2,742.7 403.2,742.5 403.3,742.6 403.3,743.0 403.3,743.6 403.3,744.2 403.2,744.6 403.1,744.6 402.9,744.3 402.7,743.8 402.5,743.2 402.4,742.8 402.3,742.7 402.2,742.8 402.1,743.2 402.2,743.7 402.2,744.2 402.3,744.7 402.4,745.2 402.6,745.9 402.7,746.6 402.9,747.6 403.0,748.7 403.2,749.8 403.2,750.9 403.3,751.8 403.2,752.6 403.1,753.2 403.0,753.9 402.8,754.5 402.6,755.3 402.4,756.1 402.2,757.1 402.0,758.1 401.8,759.0 401.7,760.1 401.6,761.2 401.6,761.8 401.6,761.7 401.6,761.0 401.6,760.0 401.8,759.0 401.9,758.3 402.1,758.3 402.3,758.8 402.6,759.8 402.8,760.9 402.9,761.7 403.0,761.9 403.0,761.5 403.0,760.6 402.8,759.5 402.7,758.6 402.5,758.3 402.4,758.5 402.2,759.2 402.1,760.2 401.9,761.1 401.8,761.6 401.8,761.4 401.7,760.8 401.7,759.9 401.7,759.0 401.8,758.5 401.9,758.6 402.0,759.1 402.2,760.0 402.4,761.0 402.6,761.6 402.7,761.7 402.7,761.2 402.8,760.4 402.7,759.4 402.7,758.7 402.6,758.4 402.6,758.7 402.5,759.4 402.4,760.3 402.3,761.0 402.2,761.4 402.1,761.2 402.0,760.6 401.9,759.8 401.8,759.1 401.8,758.7 401.8,758.8 401.9,759.4 402.0,760.2 402.1,761.0 402.2,761.4 402.3,761.4 402.4,761.0 402.5,760.2 402.5,759.4 402.5,758.8 402.5,758.6 402.6,758.9 402.6,759.6 402.6,760.3 402.5,760.9 402.5,761.2 402.4,761.0 402.3,760.4 402.2,759.7 402.1,759.2 402.0,758.9 402.0,759.0 402.0,759.5 402.0,760.3 402.0,760.9 402.0,761.3 402.1,761.3 402.1,761.2 402.2,761.1 402.3,761.4 402.4,762.2 402.5,763.5" fill="none" stroke="#8250df" stroke-width="1.2" stroke-opacity="0.8"/>
<circle cx="403.1" cy="817.0" r="33.0" fill="#bf8700" fill-opacity="0.85" stroke="#1f2328" stroke-width="0.8"/>
<text x="403.1" y="821.0" font-size="11" font-weight="600" text-anchor="middle" fill="#ffffff">2</text>
<circle cx="402.5" cy="763.4" r="33.0" fill="#8250df" fill-opacity="0.85" stroke="#1f2328" stroke-width="0.8"/>
<text x="402.5" y="767.4" font-size="11" font-weight="600" text-anchor="middle" fill="#ffffff">3</text>
<circle cx="367.4" cy="817.0" r="33.0" fill="#0969da" fill-opacity="0.85" stroke="#1f2328" stroke-width="0.8"/>
<text x="367.4" y="821.0" font-size="11" font-weight="600" text-anchor="middle" fill="#ffffff">0</text>
<circle cx="436.3" cy="817.0" r="33.0" fill="#1a7f37" fill-opacity="0.85" stroke="#1f2328" stroke-width="0.8"/>
<text x="436.3" y="821.0" font-size="11" font-weight="600" text-anchor="middle" fill="#ffffff">1</text>
<rect x="661" y="58" width="369" height="353" fill="#eaeef2" stroke="#d0d7de"/>
<circle cx="791.3" cy="280.2" r="52.0" fill="#0969da" fill-opacity="0.85" stroke="#1f2328" stroke-width="0.8"/>
<text x="791.3" y="284.2" font-size="12" font-weight="600" text-anchor="middle" fill="#ffffff">0</text>
<circle cx="900.0" cy="281.0" r="52.0" fill="#1a7f37" fill-opacity="0.85" stroke="#1f2328" stroke-width="0.8"/>
<text x="900.0" y="285.0" font-size="12" font-weight="600" text-anchor="middle" fill="#ffffff">1</text>
<circle cx="847.7" cy="188.0" r="52.0" fill="#bf8700" fill-opacity="0.85" stroke="#1f2328" stroke-width="0.8"/>
<text x="847.7" y="192.0" font-size="12" font-weight="600" text-anchor="middle" fill="#ffffff">2</text>
<circle cx="846.7" cy="251.7" r="52.0" fill="#8250df" fill-opacity="0.85" stroke="#1f2328" stroke-width="0.8"/>
<text x="846.7" y="255.7" font-size="12" font-weight="600" text-anchor="middle" fill="#ffffff">3</text>
<text x="687.3" y="427" font-size="11" text-anchor="middle" fill="#1f2328">0.30</text>
<text x="845.7" y="427" font-size="11" text-anchor="middle" fill="#1f2328">0.61</text>
<text x="1004.0" y="427" font-size="11" text-anchor="middle" fill="#1f2328">0.91</text>
<text x="661" y="449" font-size="11.5" fill="#1f2328">gaps between touching beads: 9 µm, 8 µm, 5 µm, 2 µm, 0 µm, 3 µm</text>
<text x="70" y="1004" font-size="11" fill="#57606a">Gor'kov force from the exact glass-chamber modes (10 tones, 4× holding drive), gravity, air drag; beads fuse where they first touch. Not modelled: scattering by the support and placed beads, streaming.</text>
</svg>