<svg xmlns="http://www.w3.org/2000/svg" width="974" height="1018" viewBox="0 0 974 1018" font-family="-apple-system, Helvetica, Arial, sans-serif">
<rect width="974" height="1018" fill="#ffffff"/>
<text x="70" y="26" font-size="15" font-weight="600" fill="#1f2328">A tetrahedron with the part in the field: the base snaps shut, the top bead is dropped into the pocket</text>
<text x="70" y="44" font-size="11.5" fill="#1f2328">side view (mm from the pick-up trap) — each bead's path from the pick-up down onto the support</text>
<text x="592.033" y="44" font-size="11.5" fill="#1f2328">top view of the finished build (mm)</text>
<rect x="70" y="58" width="462" height="891" fill="none" stroke="#d0d7de"/>
<line x1="70" x2="532" y1="850.0" y2="850.0" stroke="#d0d7de" stroke-width="0.6"/>
<text x="62" y="854.0" font-size="11" text-anchor="end" fill="#1f2328">-2</text>
<line x1="70" x2="532" y1="685.0" y2="685.0" stroke="#d0d7de" stroke-width="0.6"/>
<text x="62" y="689.0" font-size="11" text-anchor="end" fill="#1f2328">-1.5</text>
<line x1="70" x2="532" y1="520.0" y2="520.0" stroke="#d0d7de" stroke-width="0.6"/>
<text x="62" y="524.0" font-size="11" text-anchor="end" fill="#1f2328">-1</text>
<line x1="70" x2="532" y1="355.0" y2="355.0" stroke="#d0d7de" stroke-width="0.6"/>
<text x="62" y="359.0" font-size="11" text-anchor="end" fill="#1f2328">-0.5</text>
<line x1="70" x2="532" y1="190.0" y2="190.0" stroke="#d0d7de" stroke-width="0.6"/>
<text x="62" y="194.0" font-size="11" text-anchor="end" fill="#1f2328">0</text>
<text x="202.0" y="965" font-size="11" text-anchor="middle" fill="#1f2328">0</text>
<text x="367.0" y="965" font-size="11" text-anchor="middle" fill="#1f2328">0.5</text>
<text x="532.0" y="965" font-size="11" text-anchor="middle" fill="#1f2328">1</text>
<rect x="70" y="850.0" width="462" height="99.0" fill="#eaeef2"/>
<line x1="70" x2="532" y1="850.0" y2="850.0" stroke="#57606a" stroke-width="1.4"/>
<text x="526" y="866.0" font-size="11" text-anchor="end" fill="#1f2328">support</text>
<circle cx="202.0" cy="190.0" r="4" fill="none" stroke="#1f2328" stroke-width="1.2"/>
<text x="210.0" y="182.0" font-size="11" fill="#1f2328">pick-up</text>
<polyline points="202.0,190.0 202.0,190.0 202.0,189.9 202.0,189.9 202.0,189.8 202.0,189.8 202.0,189.8 202.0,189.8 202.0,189.8 202.0,189.8 202.0,189.8 202.0,189.8 202.0,189.9 202.0,189.9 202.0,189.9 202.0,189.8 202.0,189.8 202.0,189.8 202.0,189.8 202.0,189.8 202.0,189.8 202.0,189.8 202.0,189.8 202.0,189.8 202.0,189.8 202.0,189.8 202.0,189.8 202.0,189.8 202.0,189.8 202.0,189.8 202.0,189.8 202.0,189.8 202.0,189.8 202.0,189.8 202.0,189.8 202.0,189.8 202.0,189.8 202.0,189.8 202.0,189.8 202.0,189.8 202.0,189.8 202.0,189.8 202.0,189.8 202.0,189.8 202.0,189.8 202.0,189.8 202.0,189.8 202.0,189.8 202.0,189.8 202.0,189.8 202.0,189.8 202.0,189.8 202.0,189.8 202.0,189.8 202.0,189.8 202.0,189.8 202.0,189.8 202.0,189.8 202.0,189.8 202.0,189.8 202.0,189.8 202.0,189.8 202.0,189.8 202.0,189.8 202.0,189.8 202.0,189.8 202.0,189.8 202.0,189.8 202.0,189.8 202.0,189.8 202.0,189.8 202.0,189.8 202.0,189.8 202.0,189.8 202.0,189.8 202.0,189.8 202.0,189.8 202.0,189.8 202.0,189.8 202.0,189.8 202.0,189.8 202.0,189.8 202.0,189.8 202.0,189.8 202.0,189.8 202.0,189.8 202.0,189.8 202.0,189.8 202.0,189.8 202.0,189.8 202.0,189.8 202.0,189.8 202.0,189.8 202.0,189.8 202.0,189.8 202.0,189.8 202.0,189.8 202.0,189.8 202.0,189.8 202.0,189.8 202.0,189.8 202.0,189.8 202.0,189.8 202.0,189.8 202.0,189.8 202.0,189.8 202.0,189.8 202.0,189.8 202.0,189.8 202.0,189.8 202.0,189.8 202.0,189.8 202.0,189.8 202.0,189.8 202.0,189.8 202.0,189.8 202.0,189.8 202.0,189.8 202.0,189.8 202.0,189.8 202.0,189.8 202.0,189.8 202.0,189.8 202.0,189.8 202.0,189.8 202.0,189.8 202.0,189.8 202.0,189.8 202.0,189.8 202.0,189.8 202.0,189.8 202.0,189.8 202.0,189.8 202.0,189.8 202.0,189.8 202.0,189.8 202.0,189.8 202.0,189.8 202.0,189.8 202.0,189.8 202.0,189.8 202.0,189.8 202.0,189.8 202.0,189.8 202.0,189.8 202.0,189.8 202.0,189.8 202.0,189.8 202.0,189.8 202.0,189.8 202.0,189.8 202.0,189.8 202.0,189.8 202.0,189.8 202.0,189.8 202.0,189.8 202.0,189.8 202.0,189.8 202.0,189.8 202.0,189.8 202.0,189.8 202.0,189.8 202.0,189.8 202.0,189.8 202.0,189.8 202.0,189.8 202.0,189.8 202.0,189.8 202.0,189.8 202.0,189.8 202.0,189.8 202.0,189.8 202.0,189.8 202.0,189.8 202.0,189.8 202.0,189.8 202.0,189.8 202.0,189.8 202.0,189.8 202.0,189.8 202.0,189.8 202.0,189.8 202.0,189.8 202.0,189.8 202.0,189.8 202.0,189.8 202.0,189.8 202.0,189.8 202.0,189.8 202.0,189.8 202.0,189.8 202.0,189.8 202.0,189.8 202.0,189.8 202.0,189.8 202.0,189.8 202.0,189.8 202.0,189.8 202.0,189.8 202.0,189.8 202.0,189.8 202.0,189.8 202.0,189.8 202.0,189.8 202.0,189.8 202.0,189.8 202.0,189.8 202.0,189.8 202.0,189.8 202.0,189.8 202.0,189.8 202.0,189.8 202.0,189.8 202.0,189.8 202.0,189.8 202.0,189.8 202.0,189.8 202.0,189.8 202.0,189.8 202.0,189.8 202.0,189.8 202.0,189.8 202.0,189.8 202.0,189.8 202.0,189.8 202.0,189.8 202.0,189.8 202.0,189.8 202.0,189.8 202.0,189.8 202.0,189.8 202.0,189.8 202.0,189.8 202.0,189.8 202.0,189.8 202.0,189.8 202.0,189.8 202.0,189.8 202.0,189.8 202.0,189.8 202.0,189.8 202.0,189.8 202.0,189.8 202.0,189.8 202.0,189.8 202.0,189.8 202.0,189.8 202.0,189.8 202.0,189.8 202.0,189.8 202.0,189.8 202.0,189.8 202.1,189.8 202.3,189.8 202.8,189.8 203.7,189.7 204.9,189.7 206.6,189.6 208.8,189.6 211.3,189.5 214.3,189.5 217.5,189.5 220.9,189.5 224.4,189.5 227.9,189.6 231.2,189.6 234.3,189.7 237.1,189.7 239.5,189.8 241.7,189.8 243.5,189.8 245.0,189.8 246.3,189.8 247.4,189.8 248.5,189.8 249.5,189.8 250.6,189.8 251.8,189.7 253.2,189.7 254.8,189.6 256.5,189.6 258.5,189.5 260.7,189.5 263.1,189.5 265.6,189.5 268.2,189.5 270.8,189.5 273.5,189.6 276.2,189.7 278.9,189.8 281.6,189.9 284.3,190.1 287.1,190.1 289.7,190.2 292.0,190.3 293.7,190.4 294.9,190.5 295.5,190.6 295.4,190.6 294.6,190.7 293.2,190.6 291.4,190.6 289.2,190.5 286.7,190.3 284.2,190.1 281.7,189.9 279.5,189.7 277.6,189.5 276.1,189.4 275.2,189.3 274.8,189.3 275.0,189.4 275.8,189.5 276.9,189.6 278.6,189.7 280.5,189.9 282.6,190.0 284.8,190.1 287.1,190.1 289.5,190.1 291.9,190.1 294.3,190.1 296.8,190.1 299.3,190.1 301.8,190.1 304.3,190.1 306.6,190.2 308.9,190.2 311.0,190.3 313.0,190.3 314.9,190.2 316.5,190.2 318.1,190.1 319.4,190.0 320.7,189.9 322.0,189.8 323.3,189.7 324.6,189.7 326.1,189.7 327.8,189.8 329.7,189.9 331.8,190.0 334.2,190.0 336.9,190.1 339.7,190.1 342.7,190.2 345.8,190.1 349.0,190.1 352.0,190.1 354.9,190.1 357.6,190.1 360.1,190.1 362.2,190.1 364.1,190.1 365.7,190.1 367.0,190.2 368.3,190.2 369.5,190.1 370.5,190.1 371.4,190.1 371.9,190.1 372.1,190.1 372.1,190.2 371.8,190.3 371.2,190.4 370.4,190.4 369.5,190.4 368.4,190.4 367.3,190.3 366.2,190.1 365.3,190.0 364.4,189.8 363.7,189.6 363.2,189.5 362.9,189.5 362.8,189.5 363.0,189.6 363.3,189.7 363.9,189.9 364.5,190.0 365.3,190.1 366.1,190.2 367.0,190.4 367.9,191.0 368.6,192.1 369.3,193.8 369.8,196.1 370.2,199.0 370.4,202.2 370.5,205.3 370.4,208.2 370.2,210.7 369.9,212.4 369.4,213.6 368.9,214.3 368.3,214.8 367.6,215.2 366.9,215.9 366.2,217.1 365.5,218.9 364.9,221.3 364.4,224.1 364.0,227.2 363.9,230.2 363.9,233.0 364.2,235.3 364.6,237.2 365.3,238.5 366.0,239.4 366.9,240.1 367.7,240.8 368.6,241.7 369.3,243.1 369.9,245.0 370.3,247.4 370.5,250.1 370.5,253.0 370.4,255.9 370.0,258.4 369.5,260.6 368.9,262.3 368.2,263.9 367.5,265.2 366.8,265.8 366.1,265.8 365.6,265.0 365.2,263.7 364.9,262.1 364.7,260.5 364.7,259.2 364.8,258.5 364.9,258.6 365.1,259.3 365.4,260.5 365.7,262.1 366.1,263.6 366.6,264.8 367.0,265.5 367.5,265.5 367.9,264.9 368.4,263.8 368.7,262.3 369.0,260.9 369.2,259.8 369.2,259.2 369.1,259.2 368.9,259.9 368.6,261.2 368.2,263.2 367.7,265.6 367.2,268.5 366.7,271.5 366.2,274.4 365.8,277.0 365.6,279.1 365.4,280.8 365.4,281.9 365.4,282.8 365.6,283.5 365.9,284.3 366.2,285.5 366.6,287.1 367.1,289.2 367.6,291.7 368.0,294.5 368.5,297.5 368.9,300.4 369.3,302.9 369.6,305.1 369.9,306.7 370.0,307.9 370.1,308.8 370.0,309.5 369.9,310.3 369.6,311.3 369.1,312.8 368.7,314.7 368.1,317.0 367.5,319.5 366.8,322.2 366.3,324.7 365.7,327.0 365.4,328.9 365.1,330.3 365.0,331.5 364.9,332.4 365.1,333.5 365.3,334.8 365.6,335.9 366.0,336.7 366.5,336.8 367.0,336.5 367.6,335.7 368.1,334.6 368.5,333.5 368.9,332.5 369.1,331.9 369.2,331.8 369.2,332.2 369.0,333.1 368.7,334.1 368.3,335.2 367.8,336.1 367.3,336.6 366.8,336.6 366.3,336.1 365.9,335.2 365.6,334.1 365.3,333.0 365.2,332.2 365.1,331.8 365.2,331.9 365.3,332.6 365.5,334.1 365.8,336.4 366.2,339.3 366.6,342.6 367.1,346.0 367.6,349.2 368.2,351.9 368.7,354.0 369.2,355.4 369.7,356.3 370.1,356.8 370.4,357.3 370.7,358.0 370.9,359.2 370.9,361.1 370.9,363.6 370.8,366.6 370.5,369.8 370.3,372.9 369.9,375.7 369.6,378.0 369.2,379.7 368.8,380.7 368.5,381.2 368.2,381.6 367.9,382.1 367.6,382.9 367.4,384.3 367.3,386.3 367.3,388.9 367.3,391.8 367.4,394.9 367.5,397.7 367.7,400.2 367.9,402.1 368.1,403.4 368.3,404.2 368.4,404.7 368.5,405.5 368.4,406.4 368.3,407.4 368.1,408.2 367.9,408.5 367.6,408.4 367.3,407.9 366.9,407.0 366.6,406.1 366.4,405.2 366.1,404.5 366.0,404.3 365.9,404.6 365.8,405.2 365.8,406.0 365.9,406.9 366.0,407.7 366.2,408.2 366.4,408.2 366.6,407.9 366.8,407.2 367.0,406.3 367.3,405.5 367.5,404.9 367.7,404.6 367.9,404.8 368.0,405.5 368.1,406.9 368.2,409.0 368.2,411.7 368.1,414.8 368.0,418.0 367.9,421.0 367.7,423.6 367.5,425.6 367.3,427.0 367.1,428.0 367.0,428.7 366.9,429.3 366.9,430.3 367.0,431.8 367.2,433.8 367.5,436.3 367.8,439.2 368.1,442.2 368.5,445.1 368.8,447.6 369.1,449.6 369.3,451.0 369.4,452.0 369.4,452.6 369.3,453.2 369.2,454.1 368.9,455.3 368.7,457.1 368.4,459.4 368.0,462.2 367.7,465.1 367.4,467.9 367.1,470.4 366.9,472.4 366.7,473.8 366.5,474.8 366.5,475.4 366.4,475.9 366.4,477.0 366.5,478.5 366.5,480.0 366.6,481.2 366.7,481.9 366.8,481.7 366.9,480.9 367.0,479.6 367.0,478.2 367.1,476.8 367.2,476.0 367.3,475.8 367.4,476.2 367.5,477.3 367.6,478.7 367.6,480.0 367.6,481.1 367.5,481.6 367.4,481.5 367.3,480.7 367.1,479.5 366.9,478.1 366.7,476.9 366.5,476.1 366.4,476.0 366.3,476.5 366.3,477.8 366.4,479.8 366.6,482.6 366.9,485.8 367.2,489.2 367.6,492.5 368.1,495.4 368.5,497.8 369.0,499.4 369.4,500.5 369.8,501.3 370.2,501.9 370.5,502.9 370.8,504.4 371.0,506.4 371.2,509.0 371.2,512.0 371.2,515.1 371.1,517.9 370.8,520.3 370.5,522.1 370.1,523.3 369.7,524.1 369.3,524.7 368.9,525.3 368.6,526.4 368.4,528.0 368.3,530.1 368.3,532.7 368.3,535.5 368.4,538.1 368.4,540.4 368.5,542.1 368.5,543.2 368.5,543.9 368.4,544.3 368.3,544.8 368.2,545.5 368.1,547.0 367.9,549.3 367.8,552.0 367.5,554.4 367.2,555.7 366.8,555.8 366.3,554.5 365.9,552.2 365.5,549.7 365.4,547.5 365.4,546.2 365.5,546.3 366.0,547.6 366.5,549.8 367.1,552.2 367.6,554.2 368.0,555.2 368.2,555.0 368.2,553.6 368.1,551.4 367.9,549.1 367.7,547.3 367.5,546.5 367.3,546.9 367.2,548.4 367.2,550.6 367.2,552.8 367.1,554.8 367.1,556.3 367.1,557.5 367.0,558.4 367.1,559.3 367.2,560.7 367.4,562.5 367.6,564.8 368.0,567.7 368.4,570.7 368.7,573.6 369.0,576.2 369.3,578.2 369.5,579.6 369.6,580.7 369.7,581.5 369.7,582.5 369.7,583.8 369.7,585.6 369.7,587.9 369.7,590.6 369.6,593.4 369.4,595.9 369.2,598.0 368.9,599.7 368.5,600.8 368.1,601.6 367.8,602.4 367.5,603.5 367.4,605.0 367.4,607.0 367.5,609.4 367.7,611.9 367.9,614.3 368.1,616.4 368.3,617.9 368.4,618.9 368.3,619.6 368.3,620.3 368.1,621.6 368.0,623.4 367.7,624.9 367.3,625.8 366.8,625.8 366.3,624.9 365.8,623.5 365.4,621.9 365.2,620.7 365.2,620.2 365.4,620.6 365.9,621.8 366.5,623.3 367.1,624.7 367.7,625.6 368.2,625.6 368.4,624.8 368.5,623.4 368.5,621.9 368.4,620.7 368.2,620.2 367.9,620.5 367.7,621.5 367.5,623.0 367.2,624.4 366.9,625.4 366.5,625.9 366.2,626.3 366.0,626.8 366.0,627.8 366.1,629.8 366.5,632.4 367.0,635.7 367.5,639.0 368.0,642.0 368.4,644.3 368.7,645.7 368.8,646.5 368.8,647.0 368.7,647.5 368.6,648.7 368.5,650.5 368.5,653.1 368.4,656.2 368.2,659.4 368.1,662.3 367.8,664.5 367.5,666.1 367.2,666.9 366.9,667.4 366.6,668.0 366.6,669.1 366.7,670.8 367.0,673.3 367.4,676.1 367.8,679.0 368.2,681.6 368.4,683.5 368.5,684.7 368.5,685.4 368.3,685.8 368.1,686.4 367.8,687.6 367.6,689.5 367.4,692.1 367.2,695.5 367.1,698.9 366.8,701.0 366.3,701.3 365.8,699.6 365.2,696.6 364.8,693.2 364.6,690.7 364.9,689.8 365.5,690.7 366.4,693.2 367.5,696.4 368.5,699.1 369.1,700.6 369.4,700.2 369.3,698.2 368.8,695.2 368.2,692.2 367.6,690.2 367.1,689.9 366.7,691.4 366.6,694.1 366.5,697.1 366.3,699.6 366.2,700.7 365.9,700.0 365.6,698.2 365.5,696.4 365.6,695.5 366.0,696.6 366.7,699.8 367.6,704.8 368.4,710.4 369.1,715.4 369.3,718.8 369.1,720.0 368.5,719.5 367.6,718.0 366.7,716.7 365.9,716.7 365.4,718.7 365.2,722.7 365.3,727.9 365.5,733.1 365.8,737.4 366.0,739.7 366.0,740.0 366.0,738.8 366.0,737.1 366.1,736.1 366.4,736.8 367.0,739.5 367.7,743.8 368.3,748.8 368.7,753.2 368.8,756.1 368.5,757.1 367.9,756.5 367.0,755.1 366.2,753.9 365.6,754.1 365.4,756.1 365.4,759.8 365.7,764.4 366.1,768.9 366.6,772.6 367.0,774.4 367.1,773.5 367.0,770.5 366.8,766.3 366.6,762.5 366.7,760.6 367.1,761.2 367.6,764.0 368.2,768.0 368.7,771.6 368.8,773.6 368.5,773.2 367.8,770.6 367.0,766.9 366.2,763.3 365.6,761.3 365.4,761.6 365.6,764.0 366.1,767.7 366.7,771.2 367.1,773.3 367.4,773.1 367.4,770.9 367.3,767.4 367.1,763.8 367.0,761.7 367.2,761.6 367.5,763.6 367.9,766.9 368.2,770.3 368.3,772.6 368.1,772.8 367.5,771.0 366.8,767.9 366.1,764.6 365.6,762.4 365.5,762.0 365.7,763.7 366.2,766.7 366.8,769.9 367.3,772.2 367.7,772.6 367.8,771.1 367.6,768.2 367.4,765.0 367.2,762.7 367.2,762.1 367.3,763.4 367.6,766.1 367.8,769.2 367.9,771.6 367.7,772.3 367.3,771.2 366.7,768.7 366.2,765.7 365.8,763.4 365.7,762.6 365.9,763.6 366.4,766.0 366.9,768.9 367.5,771.1 367.9,772.0 368.0,771.1 367.8,768.8 367.6,766.0 367.3,763.7 367.2,762.7 367.1,763.5 367.2,765.6 367.4,768.4 367.5,770.7 367.4,771.7 367.1,771.2 366.7,769.2 366.3,766.6 366.0,764.3 365.9,763.2 366.1,763.6 366.5,765.5 367.1,768.0 367.6,770.2 368.0,771.3 368.1,770.9 367.9,769.2 367.6,766.8 367.3,764.6 367.0,763.4 366.9,763.7 366.9,765.3 367.0,767.6 367.1,769.8 367.1,771.1 367.0,771.0 366.8,769.5 366.5,767.3 366.2,765.1 366.2,763.8 366.4,763.8 366.7,765.2 367.2,767.3 367.7,769.3 368.0,770.7 368.1,770.7 367.9,769.5 367.6,767.5 367.2,765.4 366.9,764.1 366.7,764.0 366.7,765.1 366.8,767.0 366.9,769.1 367.0,770.5 367.0,770.7 366.9,769.7 366.7,767.8 366.5,765.9 366.5,764.4 366.6,764.1 366.9,765.0 367.3,766.7 367.7,768.6 367.9,770.0 368.0,770.4 367.8,769.6 367.5,768.0 367.2,766.1 366.8,764.7 366.6,764.3 366.5,765.0 366.6,766.6 366.8,768.4 366.9,769.8 367.0,770.3 367.0,769.7 366.9,768.2 366.8,766.4 366.7,765.0 366.8,764.5 367.0,765.0 367.3,766.3 367.6,768.0 367.8,769.4 367.8,770.0 367.7,769.6 367.4,768.3 367.1,766.7 366.7,765.3 366.5,764.7 366.5,765.1 366.5,766.3 366.7,767.9 366.9,769.2 367.1,769.9 367.1,769.6 367.1,768.5 367.0,766.9 367.0,765.6 367.0,764.9 367.1,765.1 367.3,766.1 367.5,767.5 367.6,768.9 367.7,769.6 367.5,769.5 367.3,768.6 367.0,767.2 366.7,765.9 366.5,765.1 366.4,765.2 366.5,766.1 366.7,767.4 366.9,768.7 367.1,769.5 367.2,769.5 367.2,768.7 367.2,767.6 367.2,766.7 367.2,766.7 367.3,767.7 367.5,769.8 367.7,772.4 367.8,774.9 367.8,776.6 367.5,777.2 367.2,776.9 366.8,776.0 366.4,775.3 366.2,775.3 366.2,776.3 366.4,778.3 366.7,780.8 367.0,783.0 367.3,784.6 367.4,785.2 367.5,785.1 367.5,784.6 367.4,783.8 367.3,783.0 367.2,782.5 367.1,782.6 367.1,783.1 367.1,784.0 367.1,784.7 367.1,785.1 367.0,785.1 366.9,784.6 366.8,783.8 366.8,783.1 366.8,782.7 366.9,782.7 367.0,783.2 367.2,784.0 367.4,784.6 367.5,785.0 367.5,784.9 367.5,784.4 367.3,783.7 367.2,783.0 367.1,782.7 367.0,782.8 367.0,783.3 367.0,784.0 367.0,784.7 367.0,785.0 367.0,784.9 367.0,784.4 366.9,783.7 366.9,783.1 366.9,782.8 367.0,782.9 367.1,783.3 367.3,784.0 367.4,784.6 367.5,784.9 367.5,784.8 367.4,784.3 367.3,783.7 367.1,783.1 367.0,782.8 367.0,783.0 366.9,783.4 367.0,784.1 367.0,784.6 367.0,784.9 367.0,784.8 367.0,784.3 367.0,783.7 367.0,783.2 367.0,782.9 367.1,783.0 367.2,783.4 367.3,784.0 367.4,784.5 367.4,784.8 367.4,784.6 367.3,784.2 367.2,783.7 367.0,783.2 366.9,783.0 366.9,783.1 366.9,783.5 367.0,784.1 367.0,784.5 367.1,784.7 367.1,784.6 367.1,784.2 367.1,783.7 367.1,783.2 367.1,783.0 367.2,783.1 367.3,783.7 367.4,784.6 367.5,785.8 367.6,787.1 367.6,788.4 367.5,789.3 367.4,790.0 367.2,790.5 367.0,790.9 366.9,791.3 366.7,792.1 366.7,793.0 366.7,794.2 366.8,795.5 366.9,796.6 367.0,797.6 367.1,798.2 367.2,798.6 367.2,798.9 367.3,799.7 367.4,800.7 367.4,801.5 367.4,801.9 367.3,801.6 367.1,800.9 366.9,799.9 366.7,799.2 366.6,798.9 366.7,799.2 366.8,800.0 367.0,800.9 367.2,801.6 367.3,801.8 367.3,801.5 367.3,800.7 367.3,799.8 367.2,799.1 367.2,798.9 367.2,799.3 367.3,800.1 367.3,800.9 367.3,801.6 367.2,801.7 367.1,801.3 367.0,800.6 366.8,799.7 366.7,799.2 366.7,799.1 366.8,799.5 367.0,800.3 367.1,801.0 367.3,801.5 367.4,801.6 367.4,801.1 367.3,800.4 367.2,799.6 367.2,799.1 367.2,799.2 367.2,799.6 367.2,800.4 367.2,801.1 367.2,801.5 367.1,801.5 367.0,801.0 366.9,800.3 366.8,799.6 366.8,799.2 366.8,799.3 366.9,799.8 367.1,800.5 367.3,801.1 367.4,801.4 367.4,801.3 367.4,800.8 367.3,800.1 367.2,799.5 367.1,799.2 367.1,799.4 367.1,799.9 367.1,800.6 367.1,801.2 367.1,801.4 367.1,801.3 367.0,800.7 366.9,800.1 366.8,799.6 366.9,799.3 366.9,799.5 367.1,800.1 367.2,800.7 367.3,801.2 367.4,801.3 367.4,801.1 367.3,800.6 367.2,800.0 367.1,799.7 367.1,800.0 367.2,801.0 367.3,802.6 367.4,804.6 367.4,806.3 367.4,807.6 367.3,808.1 367.1,808.1 366.9,807.9 366.8,807.9 366.7,808.4 366.7,809.6 366.9,811.3 367.0,813.1 367.2,814.7 367.3,815.7 367.3,816.1 367.2,816.0 367.1,816.2 367.1,816.6 367.0,817.0 367.0,817.0 366.9,817.0 366.9,817.0 366.9,817.0 366.9,817.0 366.9,817.0 366.9,817.0 366.9,817.0 367.0,817.0 367.0,817.0 367.1,817.0 367.1,817.0 367.1,817.0 367.1,817.0 367.1,817.0 367.1,817.0 367.1,817.0 367.0,817.0 367.0,817.0 366.9,817.0 366.9,817.0 366.9,817.0 366.9,817.0 366.9,817.0 366.9,817.0 367.0,817.0 367.0,817.0 367.0,817.0 367.1,817.0 367.1,817.0 367.1,817.0 367.1,817.0 367.1,817.0 367.1,817.0 367.1,817.0 367.0,817.0 367.0,817.0 367.0,817.0 366.9,817.0 366.9,817.0 366.9,817.0 366.9,817.0 366.9,817.0 367.0,817.0 367.0,817.0 367.0,817.0 367.1,817.0 367.1,817.0 367.1,817.0 367.1,817.0 367.1,817.0 367.1,817.0 367.1,817.0 367.0,817.0 367.0,817.0 367.0,817.0 366.9,817.0 366.9,817.0 366.9,817.0 366.9,817.0 367.0,817.0 367.0,817.0 367.0,817.0 367.0,817.0 367.1,817.0 367.1,817.0 367.1,817.0 367.1,817.0 367.1,817.0 367.1,817.0 367.1,817.0" fill="none" stroke="#0969da" stroke-width="1.2" stroke-opacity="0.8"/>
<polyline points="202.0,190.0 202.0,190.0 202.0,189.9 202.0,189.8 202.0,189.8 202.0,189.7 201.9,189.7 201.9,189.7 201.9,189.7 201.9,189.7 201.9,189.8 201.9,189.8 201.9,189.8 201.9,189.8 201.9,189.8 201.9,189.8 201.9,189.8 201.9,189.8 201.9,189.8 201.9,189.8 201.9,189.8 201.9,189.8 201.9,189.8 201.9,189.8 201.9,189.8 201.9,189.8 201.9,189.8 201.9,189.8 201.9,189.8 201.9,189.8 201.9,189.8 201.9,189.8 201.9,189.8 201.9,189.8 201.9,189.8 201.9,189.8 201.9,189.8 201.9,189.8 201.9,189.8 201.9,189.8 201.9,189.8 201.9,189.8 201.9,189.8 201.9,189.8 201.9,189.8 201.9,189.8 201.9,189.8 201.9,189.8 201.9,189.8 201.9,189.8 201.9,189.8 201.9,189.8 201.9,189.8 201.9,189.8 201.9,189.8 201.9,189.8 201.9,189.8 201.9,189.8 201.9,189.8 201.9,189.8 201.9,189.8 201.9,189.8 201.9,189.8 201.9,189.8 201.9,189.8 201.9,189.8 201.9,189.8 201.9,189.8 201.9,189.8 201.9,189.8 201.9,189.8 201.9,189.8 201.9,189.8 201.9,189.8 201.9,189.8 201.9,189.8 201.9,189.8 201.9,189.8 201.9,189.8 201.9,189.8 201.9,189.8 201.9,189.8 201.9,189.8 201.9,189.8 201.9,189.8 201.9,189.8 201.9,189.8 201.9,189.8 201.9,189.8 201.9,189.8 201.9,189.8 201.9,189.8 201.9,189.8 201.9,189.8 201.9,189.8 201.9,189.8 201.9,189.8 201.9,189.8 201.9,189.8 201.9,189.8 201.9,189.8 201.9,189.8 201.9,189.8 201.9,189.8 201.9,189.8 201.9,189.8 201.9,189.8 201.9,189.8 201.9,189.8 201.9,189.8 201.9,189.8 201.9,189.8 201.9,189.8 201.9,189.8 201.9,189.8 201.9,189.8 201.9,189.8 201.9,189.8 201.9,189.8 201.9,189.8 201.9,189.8 201.9,189.8 201.9,189.8 201.9,189.8 201.9,189.8 201.9,189.8 201.9,189.8 201.9,189.8 201.9,189.8 201.9,189.8 201.9,189.8 201.9,189.8 201.9,189.8 201.9,189.8 201.9,189.8 201.9,189.8 201.9,189.8 201.9,189.8 201.9,189.8 201.9,189.8 201.9,189.8 201.9,189.8 201.9,189.8 201.9,189.8 201.9,189.8 201.9,189.8 201.9,189.8 201.9,189.8 201.9,189.8 201.9,189.8 201.9,189.8 201.9,189.8 201.9,189.8 201.9,189.8 201.9,189.8 201.9,189.8 201.9,189.8 201.9,189.8 201.9,189.8 201.9,189.8 201.9,189.8 201.9,189.8 201.9,189.8 201.9,189.8 201.9,189.8 201.9,189.8 201.9,189.8 201.9,189.8 201.9,189.8 201.9,189.8 201.9,189.8 201.9,189.8 201.9,189.8 201.9,189.8 201.9,189.8 201.9,189.8 201.9,189.8 201.9,189.8 201.9,189.8 201.9,189.8 201.9,189.8 201.9,189.8 201.9,189.8 201.9,189.8 201.9,189.8 201.9,189.8 201.9,189.8 201.9,189.8 201.9,189.8 201.9,189.8 201.9,189.8 201.9,189.8 201.9,189.8 201.9,189.8 201.9,189.8 201.9,189.8 201.9,189.8 201.9,189.8 201.9,189.8 201.9,189.8 201.9,189.8 201.9,189.8 201.9,189.8 201.9,189.8 201.9,189.8 201.9,189.8 201.9,189.8 201.9,189.8 201.9,189.8 201.9,189.8 201.9,189.8 201.9,189.8 201.9,189.8 201.9,189.8 201.9,189.8 201.9,189.8 201.9,189.8 201.9,189.8 201.9,189.8 201.9,189.8 201.9,189.8 201.9,189.8 201.9,189.8 201.9,189.8 201.9,189.8 201.9,189.8 201.9,189.8 201.9,189.8 201.9,189.8 201.9,189.8 201.9,189.8 201.9,189.8 201.9,189.8 201.9,189.8 201.9,189.8 201.9,189.8 201.9,189.8 201.9,189.8 201.9,189.8 201.9,189.8 201.9,189.8 201.9,189.8 201.9,189.8 201.9,189.8 201.9,189.8 201.9,189.8 201.9,189.8 201.9,189.8 201.9,189.8 201.9,189.8 201.9,189.8 201.9,189.8 201.9,189.8 202.1,189.8 202.3,189.8 202.8,189.8 203.5,189.8 204.5,189.8 205.8,189.8 207.2,189.8 208.9,189.8 210.6,189.8 212.4,189.7 214.0,189.6 215.6,189.6 216.9,189.5 218.1,189.5 218.9,189.5 219.6,189.4 220.0,189.5 220.2,189.5 220.4,189.5 220.6,189.6 220.9,189.6 221.4,189.6 222.1,189.7 223.0,189.7 224.2,189.7 225.7,189.7 227.4,189.7 229.3,189.7 231.2,189.7 233.2,189.7 235.0,189.7 236.7,189.8 238.3,189.8 239.5,189.9 240.5,189.9 241.3,190.0 241.8,190.0 242.2,190.0 242.6,190.0 243.0,190.0 243.4,190.0 243.8,190.0 244.1,190.0 244.2,190.0 244.3,190.0 244.1,190.0 243.9,190.0 243.6,190.0 243.2,190.0 242.8,190.0 242.5,190.0 242.2,190.0 242.1,190.0 242.1,190.0 242.2,190.0 242.4,190.0 242.8,190.0 243.2,190.0 243.7,190.0 244.1,190.0 244.5,190.1 244.8,190.1 244.9,190.1 244.9,190.1 244.7,190.1 244.6,190.0 244.4,190.0 244.5,190.0 244.8,190.0 245.4,189.9 246.4,189.9 247.8,189.9 249.6,189.9 251.7,190.0 254.0,190.0 256.4,190.1 258.8,190.2 261.0,190.2 263.0,190.3 264.7,190.3 266.0,190.3 266.9,190.3 267.4,190.2 267.5,190.2 267.5,190.1 267.3,190.1 267.1,190.0 267.0,190.0 267.2,189.9 267.6,189.9 268.4,189.9 269.6,190.0 271.0,190.0 272.8,190.0 274.7,190.1 276.7,190.1 278.7,190.1 280.5,190.2 282.2,190.2 283.5,190.2 284.5,190.2 285.1,190.2 285.5,190.1 285.6,190.1 285.7,190.0 285.7,190.0 285.5,189.9 285.2,189.9 284.8,189.9 284.4,189.9 283.9,190.0 283.5,190.0 283.1,190.1 282.9,190.1 282.7,190.1 282.8,190.0 282.9,190.0 283.3,189.9 283.7,189.9 284.3,189.8 284.8,189.8 285.4,189.9 285.9,189.9 286.2,190.0 286.4,190.1 286.5,190.2 286.4,190.2 286.1,190.2 285.7,190.2 285.3,190.1 284.9,190.0 284.6,189.9 284.7,189.8 285.2,189.7 286.1,189.6 287.4,189.6 289.1,189.6 291.2,189.6 293.4,189.7 295.7,189.9 297.9,190.0 299.9,190.1 301.7,190.2 303.0,190.2 304.0,190.2 304.5,190.1 304.7,190.0 304.7,189.9 304.6,189.7 304.5,189.6 304.5,189.5 304.8,189.5 305.4,189.5 306.4,189.5 307.7,189.6 309.5,189.7 311.5,189.8 313.6,189.9 315.9,190.0 318.0,190.0 320.0,190.1 321.6,190.2 322.9,190.2 323.8,190.2 324.3,190.2 324.5,190.2 324.4,190.1 324.2,190.1 324.1,190.0 324.1,189.8 324.4,189.8 324.7,189.7 325.1,189.7 325.5,189.8 325.8,189.9 326.0,190.1 326.1,190.3 326.2,190.4 326.1,190.4 325.9,190.4 325.7,190.3 325.4,190.2 325.2,190.0 325.1,189.8 325.0,189.6 325.1,189.5 325.3,189.5 325.7,189.6 326.0,189.7 326.5,189.9 326.9,190.1 327.3,190.3 327.6,190.4 327.7,190.4 327.7,190.4 327.6,190.2 327.5,190.0 327.5,189.8 327.7,189.5 328.1,189.3 328.9,189.2 329.8,189.1 331.2,189.2 332.7,189.3 334.4,189.5 336.2,189.7 338.0,189.9 339.7,190.0 341.3,190.1 342.6,190.1 343.7,190.0 344.6,189.9 345.3,189.7 345.7,189.5 346.1,189.4 346.5,189.3 346.9,189.2 347.4,189.2 348.1,189.2 348.9,189.3 350.1,189.4 351.5,189.4 353.0,189.5 354.7,189.6 356.5,189.6 358.2,189.7 359.9,189.8 361.5,189.8 362.8,189.9 363.9,190.0 364.8,190.1 365.5,190.2 366.1,190.2 366.6,190.2 367.1,190.2 367.7,190.1 368.1,190.0 368.3,190.0 368.3,190.0 368.2,190.1 367.8,190.3 367.4,190.4 366.8,190.5 366.2,190.5 365.6,190.4 365.3,190.2 365.0,189.9 365.0,189.7 365.2,189.4 365.5,189.2 366.1,189.1 366.8,189.2 367.6,189.4 368.3,189.7 369.0,190.1 369.6,190.4 369.9,190.7 370.0,190.9 369.9,191.0 369.5,191.0 368.9,191.2 368.1,191.8 367.2,193.1 366.2,195.0 365.2,197.5 364.4,200.4 363.8,203.6 363.5,206.6 363.5,209.2 363.9,211.3 364.6,212.8 365.5,213.8 366.6,214.5 367.8,215.1 368.8,215.9 369.7,217.1 370.4,218.9 370.8,221.2 370.8,224.0 370.6,226.9 370.1,229.9 369.4,232.6 368.7,234.9 367.9,236.7 367.2,237.9 366.5,238.7 366.0,239.2 365.7,239.8 365.5,240.7 365.5,242.0 365.7,243.9 365.9,246.3 366.2,249.2 366.6,252.2 367.0,255.2 367.3,257.9 367.6,260.2 367.9,261.9 368.0,263.4 368.0,264.7 367.9,265.5 367.8,265.7 367.6,265.2 367.3,264.2 367.1,262.7 366.9,261.2 366.7,259.9 366.5,259.0 366.4,258.7 366.3,259.1 366.3,260.1 366.4,261.4 366.6,262.8 366.9,264.1 367.2,264.9 367.6,265.2 367.9,264.8 368.2,264.0 368.4,262.8 368.5,261.6 368.4,260.5 368.2,259.9 367.7,259.7 367.2,260.1 366.6,261.0 366.0,262.6 365.4,264.7 364.9,267.4 364.6,270.4 364.5,273.6 364.6,276.6 364.9,279.3 365.4,281.5 365.9,283.3 366.5,284.6 367.1,285.7 367.5,286.6 367.7,287.7 367.7,289.1 367.3,290.9 366.7,293.1 365.9,295.7 364.9,298.4 363.8,301.1 362.8,303.6 361.9,305.7 361.3,307.3 360.9,308.5 360.9,309.4 361.2,310.2 361.9,310.9 362.7,312.0 363.8,313.5 365.0,315.4 366.3,317.7 367.4,320.3 368.5,322.9 369.3,325.4 369.9,327.5 370.2,329.2 370.2,330.4 369.9,331.2 369.4,331.9 368.7,332.8 367.8,334.0 366.8,335.3 366.0,336.3 365.3,336.9 364.8,336.8 364.7,336.2 364.8,335.1 365.1,333.8 365.7,332.7 366.4,331.9 367.1,331.7 367.8,332.0 368.4,332.9 368.8,334.0 369.0,335.2 369.0,336.1 368.8,336.6 368.5,336.5 367.9,335.9 367.3,334.9 366.6,333.7 366.0,332.7 365.4,332.0 364.9,331.8 364.6,332.2 364.6,333.2 364.7,334.8 365.1,337.0 365.7,339.7 366.4,342.6 367.3,345.6 368.3,348.4 369.1,350.7 370.0,352.5 370.6,353.8 371.1,354.7 371.3,355.5 371.2,356.5 370.8,357.7 370.2,359.5 369.5,361.8 368.7,364.5 367.9,367.4 367.1,370.2 366.6,372.8 366.2,375.0 366.1,376.6 366.3,377.7 366.7,378.6 367.3,379.3 368.0,380.2 368.7,381.5 369.4,383.2 370.0,385.4 370.5,387.9 370.7,390.5 370.8,393.1 370.5,395.4 370.1,397.3 369.5,398.7 368.7,399.7 367.9,400.5 367.1,401.3 366.3,402.3 365.6,404.0 365.0,406.2 364.6,408.6 364.5,410.3 364.6,411.1 364.9,410.7 365.5,409.3 366.2,407.2 366.9,405.0 367.7,403.1 368.4,402.1 368.9,402.1 369.3,403.2 369.4,405.0 369.3,407.2 369.0,409.1 368.5,410.3 367.9,410.5 367.2,409.7 366.5,408.1 365.9,406.1 365.4,404.1 365.0,402.8 364.8,402.5 364.8,403.0 365.0,404.5 365.4,406.5 365.9,409.0 366.5,411.5 367.2,413.9 367.9,416.0 368.6,417.7 369.0,419.1 369.4,420.2 369.6,421.3 369.6,422.5 369.5,424.0 369.2,425.9 368.8,428.2 368.3,430.8 367.9,433.5 367.4,436.1 367.1,438.5 366.9,440.5 366.8,442.1 366.9,443.3 367.1,444.3 367.4,445.3 367.8,446.5 368.3,448.0 368.7,449.9 369.1,452.2 369.4,454.6 369.6,457.1 369.6,459.4 369.5,461.5 369.2,463.3 368.9,464.7 368.4,465.9 367.9,467.0 367.3,468.2 366.8,469.6 366.3,471.3 366.0,473.3 365.8,475.5 365.7,478.2 365.7,481.1 365.8,483.3 366.1,484.3 366.5,484.0 366.8,482.4 367.3,479.9 367.6,477.1 368.0,474.8 368.2,473.5 368.4,473.5 368.4,474.9 368.3,477.1 368.1,479.7 367.8,482.1 367.5,483.5 367.0,483.7 366.6,482.7 366.2,480.7 365.9,478.2 365.6,475.9 365.5,474.4 365.5,473.9 365.7,474.7 366.0,476.5 366.4,478.9 366.8,481.4 367.3,483.7 367.8,485.5 368.3,487.0 368.7,488.3 369.0,489.4 369.2,490.6 369.4,492.2 369.4,494.2 369.3,496.6 369.2,499.3 368.9,502.1 368.7,504.8 368.4,507.2 368.1,509.0 367.8,510.5 367.5,511.6 367.4,512.6 367.3,513.7 367.4,515.0 367.6,516.8 367.9,519.0 368.2,521.6 368.7,524.2 369.0,526.7 369.4,528.9 369.8,530.7 370.0,532.0 370.1,533.0 370.1,533.8 369.9,534.7 369.6,535.9 369.3,537.5 368.8,539.4 368.4,541.7 367.9,544.0 367.3,546.1 366.8,548.0 366.4,549.4 366.0,550.8 365.7,552.2 365.5,553.1 365.4,553.3 365.4,552.9 365.6,551.9 365.9,550.8 366.3,549.9 366.7,549.3 367.3,549.4 367.8,550.1 368.3,551.0 368.7,551.9 368.9,552.5 368.9,552.5 368.7,551.9 368.4,551.0 368.0,549.8 367.5,548.8 366.9,548.3 366.4,548.5 366.0,549.2 365.6,550.3 365.4,551.5 365.4,552.6 365.4,553.1 365.6,553.1 365.9,553.1 366.3,553.5 366.9,554.6 367.5,556.7 368.1,559.6 368.6,563.0 369.0,566.5 369.3,569.5 369.4,571.7 369.3,573.0 369.0,573.5 368.6,573.7 368.0,574.0 367.5,575.0 367.0,576.9 366.6,579.6 366.3,583.0 366.1,586.5 366.1,589.7 366.1,592.2 366.3,593.9 366.5,594.7 366.8,595.1 367.1,595.4 367.5,596.1 367.9,597.5 368.4,599.7 368.7,602.6 368.9,605.7 369.0,608.6 369.0,610.9 368.8,612.4 368.4,613.3 367.9,613.6 367.4,613.9 366.9,614.5 366.5,615.9 366.1,618.0 365.9,621.2 365.9,624.9 365.9,628.0 365.9,629.5 366.0,629.1 366.1,626.9 366.2,623.7 366.4,620.3 366.7,617.9 367.0,617.3 367.5,618.4 367.9,621.0 368.3,624.2 368.5,627.0 368.6,628.4 368.5,628.1 368.2,626.2 367.7,623.2 367.3,620.1 366.8,617.8 366.5,617.1 366.2,618.1 366.2,620.6 366.2,623.8 366.3,626.7 366.4,628.5 366.5,628.8 366.7,627.9 366.8,626.5 366.9,625.6 367.1,625.9 367.4,627.8 367.7,631.3 368.0,635.8 368.1,640.4 368.2,644.3 368.1,646.8 367.9,647.7 367.5,647.3 367.1,646.3 366.7,645.5 366.4,645.9 366.2,647.7 366.1,651.1 366.2,655.4 366.3,660.1 366.5,664.1 366.6,667.0 366.7,668.4 366.8,668.4 366.8,667.6 366.9,666.9 366.9,666.9 367.0,668.2 367.2,670.8 367.3,674.6 367.5,678.9 367.6,682.8 367.6,685.8 367.5,687.4 367.4,687.8 367.2,687.3 367.0,686.7 366.8,686.6 366.7,687.7 366.7,690.6 366.8,694.8 366.9,699.0 367.0,702.1 367.0,703.2 367.0,701.9 366.8,698.7 366.7,694.6 366.5,690.8 366.5,688.4 366.5,688.1 366.7,689.9 366.9,693.3 367.2,697.3 367.4,700.5 367.6,702.2 367.7,701.7 367.6,699.2 367.6,695.6 367.5,691.8 367.4,689.1 367.3,688.1 367.4,689.2 367.4,692.1 367.5,695.8 367.5,699.4 367.4,701.8 367.3,702.9 367.1,702.7 367.0,701.8 366.8,701.2 366.8,701.5 366.8,703.2 367.0,706.4 367.3,710.6 367.7,715.2 368.0,719.2 368.4,722.1 368.7,723.5 368.9,723.6 369.0,723.0 369.2,722.4 369.2,722.6 369.3,724.0 369.3,726.8 369.4,730.8 369.3,735.2 369.2,739.3 368.9,742.3 368.6,744.0 368.2,744.3 367.7,743.8 367.3,743.2 367.0,743.2 366.8,744.4 366.8,746.9 367.0,750.5 367.2,754.5 367.5,758.1 367.8,760.7 368.0,762.1 368.1,762.2 368.2,761.5 368.2,760.9 368.1,761.0 368.1,762.7 368.0,765.9 367.8,769.4 367.6,772.2 367.2,773.3 366.7,772.5 366.2,770.0 365.7,766.7 365.4,763.8 365.3,762.3 365.4,762.6 365.7,764.6 366.2,767.6 366.7,770.5 367.3,772.4 367.7,772.6 368.0,771.0 368.2,768.2 368.2,765.0 368.2,762.6 368.1,761.7 368.0,762.6 367.9,765.0 367.8,768.1 367.6,770.8 367.3,772.3 366.9,772.1 366.5,770.3 366.1,767.6 365.7,765.0 365.6,763.2 365.6,762.9 365.8,764.3 366.2,766.7 366.7,769.4 367.1,771.5 367.5,772.2 367.7,771.3 367.8,769.0 367.8,766.2 367.8,763.8 367.7,762.6 367.7,762.8 367.6,764.5 367.6,767.0 367.5,769.6 367.4,771.3 367.2,771.6 366.9,770.4 366.6,768.3 366.3,765.9 366.2,764.0 366.1,763.4 366.2,764.2 366.4,766.1 366.7,768.5 366.9,770.6 367.2,771.6 367.3,771.3 367.3,769.6 367.3,767.3 367.3,765.0 367.2,763.5 367.2,763.2 367.3,764.3 367.4,766.3 367.5,768.6 367.5,770.3 367.5,771.0 367.4,770.4 367.2,768.7 367.0,766.6 366.8,764.8 366.6,763.9 366.6,764.2 366.6,765.6 366.7,767.7 366.8,769.7 366.9,770.9 366.9,771.1 366.9,770.0 366.8,768.1 366.8,766.0 366.8,764.4 366.9,763.8 367.0,764.3 367.2,765.9 367.5,767.8 367.6,769.5 367.7,770.4 367.7,770.2 367.6,769.0 367.4,767.2 367.2,765.5 367.0,764.4 366.9,764.3 366.8,765.3 366.7,767.0 366.7,768.9 366.7,770.2 366.6,770.7 366.6,770.1 366.5,768.6 366.5,766.8 366.6,765.2 366.7,764.4 366.9,764.6 367.1,765.6 367.4,767.2 367.7,768.8 367.8,769.8 367.9,770.0 367.8,769.1 367.7,767.7 367.5,766.1 367.2,764.9 367.0,764.6 366.8,765.2 366.7,766.5 366.6,768.1 366.6,769.5 366.5,770.2 366.5,770.0 366.5,769.0 366.5,767.5 366.5,765.9 366.6,765.0 366.8,764.8 367.1,765.6 367.3,766.8 367.6,768.3 367.8,769.3 367.8,769.7 367.8,769.2 367.7,768.1 367.5,766.6 367.3,765.5 367.1,764.9 366.9,765.1 366.8,766.1 366.7,767.5 366.7,768.9 366.6,769.7 366.6,769.8 366.6,769.1 366.6,767.9 366.6,766.6 366.7,765.6 366.8,765.2 367.0,765.6 367.2,766.6 367.4,767.8 367.5,768.9 367.6,769.4 367.6,769.2 367.6,768.3 367.4,767.1 367.3,765.9 367.1,765.3 367.0,765.2 366.9,765.9 366.9,767.0 366.9,768.3 366.8,769.2 366.8,769.5 366.8,769.1 366.8,768.2 366.7,767.0 366.7,766.0 366.8,765.5 366.9,765.7 367.0,766.4 367.1,767.5 367.3,768.5 367.3,769.1 367.4,769.1 367.3,768.6 367.3,767.9 367.2,767.5 367.2,767.8 367.2,768.9 367.2,770.7 367.3,773.0 367.3,775.2 367.3,776.9 367.2,777.7 367.1,777.8 367.0,777.3 366.8,776.8 366.7,776.8 366.7,777.5 366.7,778.9 366.8,780.9 366.9,782.9 367.0,784.6 367.1,785.8 367.2,786.2 367.2,785.9 367.2,784.8 367.1,783.4 367.1,782.2 367.1,781.6 367.2,781.8 367.2,782.8 367.3,784.1 367.4,785.4 367.4,786.0 367.4,785.9 367.3,785.1 367.1,783.8 367.0,782.6 366.9,781.9 366.8,782.0 366.8,782.7 366.9,784.0 366.9,785.2 367.0,785.9 367.0,785.9 367.0,785.3 367.0,784.1 367.0,782.9 367.1,782.0 367.1,781.9 367.2,782.4 367.3,783.5 367.4,784.7 367.5,785.5 367.5,785.7 367.4,785.3 367.3,784.3 367.1,783.2 367.0,782.3 366.9,782.1 366.8,782.5 366.8,783.4 366.9,784.5 366.9,785.4 366.9,785.8 367.0,785.5 367.0,784.6 367.0,783.5 367.0,782.6 367.1,782.2 367.2,782.3 367.3,783.1 367.4,784.1 367.4,785.0 367.5,785.5 367.4,785.4 367.3,784.7 367.2,783.7 367.1,782.8 367.0,782.3 366.9,782.4 366.9,783.0 366.9,784.0 366.9,784.9 367.0,785.5 367.0,785.5 367.0,785.0 367.0,784.1 367.0,783.1 367.0,782.5 367.1,782.4 367.1,782.8 367.2,783.7 367.3,784.5 367.4,785.2 367.4,785.3 367.3,784.9 367.2,784.2 367.2,783.4 367.1,783.0 367.1,783.5 367.1,784.8 367.1,786.8 367.2,789.0 367.2,791.0 367.2,792.3 367.2,792.8 367.1,792.6 367.0,792.1 366.9,791.8 366.8,792.1 366.8,793.1 366.9,794.9 367.0,797.0 367.0,798.9 367.1,800.3 367.1,800.9 367.1,801.0 367.1,800.9 367.0,800.5 367.0,800.2 367.0,799.9 367.0,799.8 367.0,799.9 367.0,800.2 367.0,800.6 367.0,800.9 367.0,801.0 367.0,800.9 367.0,800.6 367.0,800.3 367.0,800.0 367.0,799.8 367.0,799.9 367.0,800.2 367.0,800.5 367.0,800.8 367.1,800.9 367.1,800.8 367.0,800.6 367.0,800.3 367.0,800.0 367.0,799.8 367.0,799.9 367.0,800.2 367.1,800.5 367.1,800.8 367.1,800.9 367.1,800.9 367.0,800.6 367.0,800.3 367.0,800.1 367.0,799.9 366.9,800.0 367.0,800.2 367.0,800.5 367.0,800.7 367.0,800.9 367.0,800.8 367.0,800.6 367.0,800.3 367.0,800.1 367.1,799.9 367.1,799.9 367.1,800.1 367.1,800.4 367.1,800.7 367.1,800.8 367.1,800.8 367.1,800.7 367.0,800.4 367.0,800.1 366.9,800.0 366.9,800.0 366.9,800.1 366.9,800.4 367.0,800.6 367.0,800.8 367.0,800.8 367.0,800.7 367.0,800.4 367.1,800.2 367.1,800.0 367.1,800.0 367.1,800.1 367.1,800.3 367.1,800.6 367.1,800.7 367.1,800.8 367.1,800.7 367.0,800.4 367.0,800.2 367.0,800.1 366.9,800.1 367.0,800.5 367.0,801.4 367.1,802.5 367.1,804.0 367.2,805.4 367.2,806.5 367.2,807.3 367.2,807.7 367.2,808.0 367.2,808.2 367.1,808.7 367.1,809.6 367.1,810.8 367.1,812.1 367.1,813.5 367.1,814.7 367.0,815.5 367.0,815.9 367.0,816.4 366.9,817.0 366.9,817.0 366.9,816.9 366.9,816.8 366.9,816.8 366.9,816.8 367.0,816.8 367.0,816.8 367.0,816.9 367.1,817.0 367.1,817.0 367.1,816.9 367.1,816.9 367.1,816.8 367.1,816.7 367.1,816.7 367.1,816.8 367.0,816.8 367.0,816.9 367.0,816.9 367.0,817.0 367.0,816.9 367.0,816.9 366.9,816.8 366.9,816.8 366.9,816.8 367.0,816.8 367.0,816.9 367.0,816.9 367.0,817.0 367.0,817.0 367.0,816.9 367.0,816.9 367.1,816.8 367.1,816.8 367.0,816.7 367.0,816.8 367.0,816.8 367.0,816.9 367.0,816.9 367.0,816.9 367.0,816.9 367.0,816.9 367.0,816.8 367.0,816.8 367.0,816.8 367.0,816.8 367.0,816.9 367.0,816.9 367.0,816.9 367.0,817.0 367.0,816.9 367.0,816.9 367.0,816.8 367.0,816.8 367.0,816.8 367.0,816.8 367.0,816.8 367.0,816.9 367.0,816.9 367.1,816.9 367.1,816.9 367.1,816.9 367.0,816.8 367.0,816.8 367.0,816.8 367.0,816.8 367.0,816.8 367.0,816.9 367.0,816.9 367.0,817.0 367.0,816.9 367.0,816.9 367.0,816.8 367.0,816.8 367.0,816.8 367.0,816.9 367.0,817.0 367.0,817.0 367.1,817.0 367.1,817.0 367.1,817.0 367.1,817.0 367.1,817.0 367.1,817.0 367.0,817.0 367.0,817.0 366.9,817.0 366.7,817.0 366.6,817.0 366.5,817.0 366.4,817.0 366.3,817.0 366.2,817.0 366.2,817.0 366.2,817.0 366.2,817.0 366.3,817.0 366.4,817.0 366.5,817.0 366.5,817.0 366.6,817.0 366.7,817.0 366.7,817.0 366.7,817.0 366.7,817.0 366.7,817.0 366.7,817.0 366.7,817.0 366.7,817.0 366.6,817.0 366.6,817.0 366.6,817.0 366.6,817.0 366.6,817.0 366.6,817.0 366.6,817.0 366.6,817.0 366.6,817.0 366.6,817.0 366.5,817.0 366.5,817.0 366.5,817.0 366.5,817.0 366.5,817.0 366.5,817.0 366.5,817.0 366.6,817.0 366.6,817.0 366.6,817.0 366.6,817.0 366.6,817.0 366.6,817.0 366.6,817.0 366.6,817.0 366.6,817.0 366.6,817.0 366.6,817.0 366.6,817.0 366.6,817.0 366.6,817.0 366.6,817.0 366.6,817.0 366.6,817.0 366.6,817.0 366.6,817.0 366.6,817.0 366.6,817.0 366.6,817.0 366.6,817.0 366.6,817.0 366.7,817.0 366.7,817.0 366.7,817.0 366.7,817.0 366.7,817.0 366.7,817.0 366.7,817.0 366.6,817.0 366.6,817.0 366.5,817.0 366.5,817.0 366.4,817.0 366.4,817.0 366.3,817.0 366.3,817.0 366.4,817.0 366.4,817.0 366.4,817.0 366.4,817.0 366.5,817.0 366.5,817.0 366.5,817.0 366.5,817.0 366.6,817.0 366.6,817.0 366.6,817.0 366.6,817.0 366.6,817.0 366.6,817.0 366.6,817.0 366.6,817.0 366.6,817.0 366.6,817.0 366.6,817.0 366.6,817.0 366.6,817.0 366.6,817.0 366.6,817.0 366.6,817.0 366.6,817.0 366.6,817.0 366.6,817.0 366.6,817.0 366.6,817.0 366.6,817.0 366.6,817.0 366.6,817.0 366.6,817.0 366.6,817.0 366.6,817.0 366.6,817.0 366.6,817.0 366.6,817.0 366.6,817.0 366.6,817.0 366.6,817.0 366.6,817.0 366.6,817.0 366.6,817.0 366.6,817.0 366.6,817.0 366.6,817.0 366.6,817.0 366.6,817.0 366.6,817.0 366.6,817.0 366.6,817.0 366.6,817.0 366.6,817.0 366.6,817.0 366.6,817.0 366.6,817.0 366.6,817.0 366.6,817.0 366.6,817.0 366.6,817.0 366.6,817.0 366.6,817.0 366.5,817.0 366.5,817.0 366.4,817.0 366.4,817.0 366.3,817.0 366.3,817.0 366.3,817.0 366.3,817.0 366.4,817.0 366.4,817.0 366.4,817.0 366.4,817.0 366.5,817.0 366.5,817.0 366.5,817.0 366.5,817.0 366.5,817.0 366.5,817.0 366.5,817.0 366.5,817.0 366.5,817.0 366.5,817.0 366.5,817.0 366.5,817.0 366.5,817.0 366.5,817.0 366.5,817.0 366.5,817.0 366.5,817.0 366.5,817.0 366.5,817.0 366.5,817.0 366.5,817.0 366.5,817.0 366.5,817.0 366.5,817.0 366.5,817.0 366.5,817.0 366.5,817.0 366.5,817.0 366.5,817.0 366.5,817.0 366.5,817.0 366.5,817.0 366.5,817.0 366.5,817.0 366.5,817.0 366.5,817.0 366.5,817.0 366.5,817.0 366.5,817.0 366.5,817.0 366.5,817.0 366.5,817.0 366.5,817.0 366.5,817.0 366.5,817.0 366.5,817.0 366.5,817.0 366.5,817.0 366.5,817.0 366.6,817.0 366.6,817.0 366.6,817.0 366.6,817.0 366.6,817.0 366.6,817.0 366.6,817.0 366.6,817.0 366.5,817.0 366.5,817.0 366.4,817.0 366.4,817.0 366.3,817.0 366.3,817.0 366.3,817.0 366.3,817.0 366.3,817.0 366.3,817.0 366.3,817.0 366.4,817.0 366.4,817.0 366.4,817.0 366.4,817.0 366.4,817.0 366.5,817.0 366.5,817.0 366.5,817.0 366.5,817.0 366.5,817.0 366.5,817.0 366.5,817.0 366.5,817.0 366.5,817.0 366.5,817.0 366.5,817.0 366.5,817.0 366.5,817.0 366.5,817.0 366.5,817.0 366.5,817.0 366.5,817.0 366.5,817.0 366.5,817.0 366.5,817.0 366.5,817.0 366.5,817.0 366.5,817.0 366.5,817.0 366.5,817.0 366.5,817.0 366.5,817.0 366.5,817.0 366.5,817.0 366.5,817.0 366.5,817.0 366.5,817.0 366.5,817.0 366.5,817.0 366.5,817.0 366.5,817.0 366.5,817.0 366.5,817.0 366.5,817.0 366.5,817.0 366.5,817.0 366.5,817.0 366.5,817.0 366.5,817.0 366.5,817.0 366.5,817.0 366.5,817.0 366.5,817.0 366.5,817.0 366.5,817.0 366.6,817.0 366.5,817.0 366.5,817.0 366.5,817.0 366.5,817.0 366.4,817.0 366.4,817.0 366.3,817.0 366.3,817.0 366.2,817.0 366.2,817.0 366.2,817.0 366.2,817.0 366.2,817.0 366.2,817.0 366.2,817.0 366.3,817.0 366.3,817.0 366.3,817.0 366.3,817.0 366.3,817.0 366.4,817.0 366.4,817.0 366.4,817.0 366.4,817.0 366.4,817.0 366.4,817.0 366.4,817.0 366.4,817.0 366.4,817.0 366.4,817.0 366.4,817.0 366.4,817.0 366.4,817.0 366.4,817.0 366.4,817.0 366.3,817.0 366.3,817.0 366.3,817.0 366.3,817.0 366.3,817.0 366.3,817.0 366.3,817.0 366.3,817.0 366.3,817.0 366.3,817.0 366.3,817.0 366.3,817.0 366.3,817.0 366.3,817.0 366.3,817.0 366.3,817.0 366.3,817.0 366.3,817.0 366.3,817.0 366.3,817.0 366.3,817.0 366.3,817.0 366.3,817.0 366.3,817.0 366.3,817.0 366.3,817.0 366.3,817.0 366.3,817.0 366.3,817.0 366.4,817.0 366.4,817.0 366.4,817.0 366.4,817.0 366.5,817.0 366.5,817.0 366.5,817.0 366.5,817.0 366.5,817.0 366.4,817.0 366.4,817.0 366.3,817.0 366.3,817.0 366.2,817.0 366.1,817.0 366.1,817.0 366.0,817.0 366.0,817.0 366.0,817.0 366.0,817.0 366.0,817.0 366.1,817.0 366.1,817.0 366.2,817.0 366.2,817.0 366.2,817.0 366.3,817.0 366.3,817.0 366.4,817.0 366.4,817.0 366.4,817.0 366.4,817.0 366.4,817.0 366.4,817.0 366.3,817.0 366.3,817.0 366.3,817.0 366.3,817.0 366.2,817.0 366.2,817.0 366.2,817.0 366.2,817.0 366.2,817.0 366.2,817.0 366.2,817.0 366.2,817.0 366.2,817.0 366.2,817.0 366.2,817.0 366.2,817.0 366.2,817.0 366.2,817.0 366.3,817.0 366.3,817.0 366.3,817.0 366.3,817.0 366.3,817.0 366.3,817.0 366.3,817.0 366.3,817.0 366.3,817.0 366.3,817.0 366.3,817.0 366.3,817.0 366.3,817.0 366.3,817.0 366.3,817.0 366.3,817.0 366.3,817.0 366.3,817.0 366.3,817.0 366.3,817.0 366.3,817.0 366.3,817.0 366.4,817.0 366.4,817.0 366.4,817.0 366.3,817.0 366.3,817.0 366.3,817.0 366.2,817.0 366.2,817.0 366.1,817.0 366.0,817.0 366.0,817.0 366.0,817.0 365.9,817.0 365.9,817.0 366.0,817.0 366.0,817.0 366.0,817.0 366.0,817.0 366.1,817.0 366.1,817.0 366.1,817.0 366.2,817.0 366.2,817.0 366.2,817.0 366.2,817.0 366.2,817.0 366.2,817.0 366.2,817.0 366.2,817.0 366.2,817.0 366.2,817.0 366.2,817.0 366.2,817.0 366.2,817.0 366.2,817.0 366.1,817.0 366.1,817.0 366.1,817.0 366.1,817.0 366.1,817.0 366.1,817.0 366.1,817.0 366.1,817.0 366.1,817.0 366.1,817.0 366.1,817.0 366.1,817.0 366.1,817.0 366.1,817.0 366.1,817.0 366.1,817.0 366.1,817.0 366.1,817.0 366.1,817.0 366.1,817.0 366.1,817.0 366.1,817.0 366.1,817.0 366.1,817.0 366.1,817.0 366.1,817.0 366.1,817.0 366.1,817.0 366.1,817.0 366.1,817.0 366.1,817.0 366.1,817.0 366.2,817.0 366.2,817.0 366.2,817.0 366.3,817.0 366.3,817.0 366.3,817.0 366.3,817.0 366.3,817.0 366.3,817.0 366.2,817.0 366.1,817.0 366.1,817.0 366.0,817.0 365.9,817.0 365.9,817.0 365.8,817.0 365.8,817.0 365.8,817.0 365.8,817.0 365.9,817.0 365.9,817.0 365.9,817.0 365.9,817.0 366.0,817.0 366.0,817.0 366.0,817.0 366.0,817.0 366.1,817.0 366.1,817.0 366.1,817.0 366.1,817.0 366.1,817.0 366.1,817.0 366.1,817.0 366.1,817.0 366.1,817.0 366.1,817.0 366.1,817.0 366.1,817.0 366.1,817.0 366.1,817.0 366.1,817.0 366.0,817.0 366.0,817.0 366.0,817.0 366.0,817.0 366.0,817.0 366.0,817.0 366.0,817.0 366.0,817.0 366.0,817.0 366.0,817.0 366.0,817.0 366.0,817.0 366.0,817.0 366.0,817.0 366.0,817.0 366.0,817.0 366.0,817.0 366.0,817.0 366.0,817.0 366.0,817.0 366.0,817.0 366.0,817.0 366.0,817.0 366.0,817.0 366.0,817.0 366.0,817.0 366.0,817.0 366.0,817.0 366.1,817.0 366.1,817.0 366.1,817.0 366.1,817.0 366.2,817.0 366.2,817.0 366.2,817.0 366.2,817.0 366.1,817.0 366.1,817.0 366.0,817.0 365.9,817.0 365.8,817.0 365.7,817.0 365.6,817.0 365.5,817.0 365.4,817.0 365.4,817.0 365.3,817.0 365.3,817.0 365.3,817.0 365.3,817.0 365.3,817.0 365.3,817.0 365.4,817.0 365.4,817.0 365.4,817.0 365.5,817.0 365.6,817.0 365.6,817.0 365.7,817.0 365.8,817.0 365.9,817.0 365.9,817.0 366.0,817.0 366.0,817.0 366.1,817.0 366.1,817.0 366.0,817.0 366.0,817.0 366.0,817.0 365.9,817.0 365.8,817.0 365.8,817.0 365.7,817.0 365.6,817.0 365.5,817.0 365.5,817.0 365.4,817.0 365.4,817.0 365.4,817.0 365.4,817.0 365.4,817.0 365.4,817.0 365.4,817.0 365.5,817.0 365.5,817.0 365.6,817.0 365.6,817.0 365.7,817.0 365.7,817.0 365.8,817.0 365.8,817.0 365.8,817.0 365.8,817.0 365.8,817.0 365.9,817.0 365.9,817.0 365.9,817.0 365.8,817.0 365.8,817.0 365.8,817.0 365.8,817.0 365.8,817.0 365.8,817.0 365.8,817.0 365.7,817.0 365.6,817.0 365.6,817.0 365.5,817.0 365.4,817.0 365.3,817.0 365.2,817.0 365.2,817.0 365.1,817.0 365.0,817.0 365.0,817.0 365.0,817.0 365.0,817.0 365.0,817.0 365.1,817.0 365.1,817.0 365.1,817.0 365.1,817.0 365.2,817.0 365.2,817.0 365.3,817.0 365.3,817.0 365.4,817.0 365.4,817.0 365.5,817.0 365.5,817.0 365.5,817.0 365.6,817.0 365.6,817.0 365.6,817.0 365.6,817.0 365.6,817.0 365.5,817.0 365.5,817.0 365.5,817.0 365.4,817.0 365.4,817.0 365.3,817.0 365.3,817.0 365.2,817.0 365.2,817.0 365.2,817.0 365.1,817.0 365.1,817.0 365.2,817.0 365.2,817.0 365.2,817.0 365.2,817.0 365.3,817.0 365.3,817.0 365.3,817.0 365.4,817.0 365.4,817.0 365.4,817.0 365.4,817.0 365.4,817.0 365.4,817.0 365.4,817.0 365.4,817.0 365.4,817.0 365.4,817.0 365.4,817.0 365.4,817.0 365.4,817.0 365.4,817.0 365.4,817.0 365.4,817.0 365.4,817.0 365.4,817.0 365.4,817.0 365.4,817.0 365.4,817.0 365.3,817.0 365.2,817.0 365.2,817.0 365.1,817.0 365.0,817.0 364.8,817.0 364.7,817.0 364.5,817.0 364.4,817.0 364.6,816.7" fill="none" stroke="#1a7f37" stroke-width="1.2" stroke-opacity="0.8"/>
<polyline points="202.0,190.0 202.0,189.9 202.0,189.9 201.9,189.8 201.9,189.7 201.9,189.7 201.9,189.7 201.9,189.7 201.8,189.7 201.8,189.7 201.8,189.7 201.8,189.8 201.8,189.8 201.8,189.8 201.8,189.8 201.8,189.8 201.8,189.8 201.8,189.8 201.8,189.7 201.8,189.7 201.8,189.7 201.8,189.7 201.8,189.7 201.8,189.7 201.8,189.8 201.8,189.8 201.8,189.8 201.8,189.8 201.8,189.8 201.8,189.8 201.8,189.8 201.8,189.8 201.8,189.8 201.8,189.7 201.8,189.7 201.8,189.7 201.8,189.8 201.8,189.8 201.8,189.8 201.8,189.8 201.8,189.8 201.8,189.8 201.8,189.8 201.8,189.8 201.8,189.8 201.8,189.8 201.8,189.8 201.8,189.8 201.8,189.8 201.8,189.8 201.8,189.8 201.8,189.8 201.8,189.8 201.8,189.8 201.8,189.8 201.8,189.8 201.8,189.8 201.8,189.8 201.8,189.8 201.8,189.8 201.8,189.8 201.8,189.8 201.8,189.8 201.8,189.8 201.8,189.8 201.8,189.8 201.8,189.8 201.8,189.8 201.8,189.8 201.8,189.8 201.8,189.8 201.8,189.8 201.8,189.8 201.8,189.8 201.8,189.8 201.8,189.8 201.8,189.8 201.8,189.8 201.8,189.8 201.8,189.8 201.8,189.8 201.8,189.8 201.8,189.8 201.8,189.8 201.8,189.8 201.8,189.8 201.8,189.8 201.8,189.8 201.8,189.8 201.8,189.8 201.8,189.8 201.8,189.8 201.8,189.8 201.8,189.8 201.8,189.8 201.8,189.8 201.8,189.8 201.8,189.8 201.8,189.8 201.8,189.8 201.8,189.8 201.8,189.8 201.8,189.8 201.8,189.8 201.8,189.8 201.8,189.8 201.8,189.8 201.8,189.8 201.8,189.8 201.8,189.8 201.8,189.8 201.8,189.8 201.8,189.8 201.8,189.8 201.8,189.8 201.8,189.8 201.8,189.8 201.8,189.8 201.8,189.8 201.8,189.8 201.8,189.8 201.8,189.8 201.8,189.8 201.8,189.8 201.8,189.8 201.8,189.8 201.8,189.8 201.8,189.8 201.8,189.8 201.8,189.8 201.8,189.8 201.8,189.8 201.8,189.8 201.8,189.8 201.8,189.8 201.8,189.8 201.8,189.8 201.8,189.8 201.8,189.8 201.8,189.8 201.8,189.8 201.8,189.8 201.8,189.8 201.8,189.8 201.8,189.8 201.8,189.8 201.8,189.8 201.8,189.8 201.8,189.8 201.8,189.8 201.8,189.8 201.8,189.8 201.8,189.8 201.8,189.8 201.8,189.8 201.8,189.8 201.8,189.8 201.8,189.8 201.8,189.8 201.8,189.8 201.8,189.8 201.8,189.8 201.8,189.8 201.8,189.8 201.8,189.8 201.8,189.8 201.8,189.8 201.8,189.8 201.8,189.8 201.8,189.8 201.8,189.8 201.8,189.8 201.8,189.8 201.8,189.8 201.8,189.8 201.8,189.8 201.8,189.8 201.8,189.8 201.8,189.8 201.8,189.8 201.8,189.8 201.8,189.8 201.8,189.8 201.8,189.8 201.8,189.8 201.8,189.8 201.8,189.8 201.8,189.8 201.8,189.8 201.8,189.8 201.8,189.8 201.8,189.8 201.8,189.8 201.8,189.8 201.8,189.8 201.8,189.8 201.8,189.8 201.8,189.8 201.8,189.8 201.8,189.8 201.8,189.8 201.8,189.8 201.8,189.8 201.8,189.8 201.8,189.8 201.8,189.8 201.8,189.8 201.8,189.8 201.8,189.8 201.8,189.8 201.8,189.8 201.8,189.8 201.8,189.8 201.8,189.8 201.8,189.8 201.8,189.8 201.8,189.8 201.8,189.8 201.8,189.8 201.8,189.8 201.8,189.8 201.8,189.8 201.8,189.8 201.8,189.8 201.8,189.8 201.8,189.8 201.8,189.8 201.8,189.8 201.8,189.8 201.8,189.8 201.8,189.8 201.8,189.8 201.8,189.8 201.8,189.8 201.8,189.8 201.8,189.8 201.8,189.8 201.8,189.8 201.8,189.8 201.8,189.8 201.8,189.8 201.8,189.8 201.8,189.8 201.8,189.8 201.8,189.8 201.8,189.8 201.8,189.8 201.8,189.8 201.8,189.8 201.8,189.8 201.8,189.8 201.8,189.8 201.8,189.8 201.6,189.8 201.3,189.8 200.7,189.8 199.9,189.8 198.9,189.8 197.5,189.8 196.0,189.8 194.1,189.9 192.2,189.9 190.2,189.8 188.0,189.8 186.0,189.8 184.0,189.8 182.2,189.8 180.6,189.7 179.1,189.7 177.8,189.7 176.8,189.7 176.0,189.7 175.3,189.7 174.6,189.7 174.1,189.7 173.6,189.8 173.0,189.8 172.3,189.8 171.5,189.8 170.7,189.8 169.6,189.9 168.4,189.9 167.2,189.9 165.8,190.0 164.3,190.0 162.8,190.0 161.2,190.0 159.7,190.0 158.2,190.0 156.7,190.0 155.2,190.0 153.7,190.0 152.3,190.0 151.0,190.0 150.0,189.9 149.2,189.9 148.8,189.9 148.8,189.9 149.2,189.9 149.9,189.9 150.8,189.9 152.0,189.9 153.3,189.9 154.6,190.0 155.9,190.0 157.1,190.0 158.1,190.1 158.8,190.1 159.2,190.1 159.3,190.1 159.1,190.1 158.6,190.1 157.9,190.1 156.9,190.1 155.9,190.1 154.7,190.0 153.7,190.0 152.6,190.0 151.5,190.0 150.5,189.9 149.4,189.9 148.4,189.9 147.4,189.8 146.2,189.8 145.1,189.8 143.9,189.8 142.7,189.8 141.5,189.9 140.3,189.9 139.1,190.0 137.9,190.0 136.8,190.0 135.7,190.0 134.7,190.0 133.7,190.0 132.7,190.0 131.7,190.0 130.7,189.9 129.6,189.9 128.4,189.9 127.2,189.8 125.8,189.8 124.4,189.8 122.9,189.9 121.3,189.9 119.8,189.9 118.2,189.9 116.7,189.9 115.2,190.0 113.9,190.0 112.7,190.0 111.6,190.0 110.6,190.0 109.8,190.0 109.0,190.0 108.3,190.1 107.6,190.1 106.7,190.0 106.0,190.0 105.3,190.0 104.7,190.0 104.4,190.0 104.2,190.0 104.1,190.0 104.3,190.0 104.6,190.0 105.0,189.9 105.6,189.9 106.1,189.9 106.7,189.9 107.3,189.9 107.8,189.9 108.2,190.0 108.5,190.0 108.7,190.0 108.7,190.0 108.7,190.1 108.5,190.1 108.3,190.1 108.0,190.1 107.7,190.1 107.3,190.1 107.0,190.4 106.7,191.1 106.4,192.3 106.1,194.3 106.0,196.8 105.8,199.8 105.7,203.0 105.7,206.0 105.7,208.7 105.7,210.9 105.8,212.4 105.9,213.4 106.1,214.0 106.3,214.6 106.5,215.2 106.9,216.4 107.2,218.1 107.7,220.3 108.0,223.0 108.4,226.0 108.7,229.0 109.0,231.8 109.1,234.2 109.1,236.0 108.9,237.4 108.6,238.2 108.1,238.9 107.6,239.6 107.1,240.5 106.5,241.8 106.0,243.7 105.5,246.0 105.1,248.7 104.9,251.6 104.8,254.4 104.8,256.9 105.0,259.0 105.3,260.6 105.7,261.8 106.1,263.1 106.7,264.2 107.2,264.8 107.7,264.9 108.0,264.4 108.4,263.5 108.6,262.3 108.7,261.1 108.7,260.1 108.5,259.6 108.3,259.6 108.0,260.1 107.6,261.1 107.2,262.3 106.8,263.4 106.4,264.3 105.9,264.7 105.6,264.6 105.3,264.0 105.1,263.0 105.0,261.9 105.1,260.9 105.2,260.1 105.5,259.8 105.9,260.0 106.3,260.7 106.8,261.9 107.2,263.8 107.6,266.1 107.8,268.8 107.9,271.8 107.7,274.7 107.4,277.4 106.9,279.6 106.2,281.4 105.4,282.7 104.6,283.7 103.7,284.6 102.8,285.5 102.0,286.7 101.4,288.2 100.9,290.3 100.6,292.7 100.4,295.3 100.4,298.1 100.6,300.7 100.9,303.1 101.3,305.0 101.8,306.6 102.3,307.7 102.9,308.6 103.5,309.5 104.0,310.5 104.5,311.9 104.9,313.7 105.3,315.9 105.6,318.3 105.8,321.0 106.0,323.5 106.1,325.8 106.2,327.7 106.3,329.2 106.3,330.3 106.3,331.2 106.3,332.1 106.3,333.4 106.3,334.8 106.4,336.1 106.4,336.9 106.5,337.1 106.6,336.6 106.7,335.6 106.8,334.3 106.9,333.0 107.0,331.9 107.0,331.4 107.1,331.6 107.1,332.4 107.1,333.5 107.1,334.9 107.2,336.1 107.2,336.8 107.2,337.0 107.2,336.6 107.1,335.7 107.1,334.4 107.0,333.1 106.9,332.1 106.8,331.5 106.6,331.6 106.4,332.3 106.2,333.6 106.1,335.6 105.9,338.2 105.8,341.1 105.8,344.2 105.8,347.0 106.0,349.5 106.1,351.5 106.4,352.9 106.7,353.9 107.0,354.7 107.3,355.6 107.6,356.7 107.8,358.2 108.0,360.3 108.0,362.8 108.0,365.7 107.9,368.6 107.7,371.4 107.5,373.8 107.3,375.7 107.0,377.0 106.8,377.9 106.5,378.6 106.3,379.4 106.2,380.3 106.0,381.8 106.0,383.7 106.0,386.1 106.0,388.7 106.1,391.5 106.3,394.1 106.5,396.3 106.7,398.1 106.9,399.5 107.2,400.4 107.3,401.2 107.5,402.0 107.6,403.1 107.6,405.0 107.5,407.2 107.4,409.2 107.3,410.5 107.2,410.9 107.1,410.2 107.0,408.7 106.9,406.6 106.8,404.5 106.8,402.9 106.7,402.2 106.6,402.4 106.5,403.6 106.4,405.4 106.3,407.4 106.2,409.1 106.2,410.1 106.2,410.2 106.2,409.4 106.2,407.9 106.3,406.0 106.4,404.2 106.6,403.0 106.7,402.6 106.9,403.1 107.0,404.4 107.1,406.5 107.2,409.1 107.3,412.1 107.4,415.0 107.4,417.6 107.4,419.8 107.4,421.5 107.3,422.6 107.2,423.5 107.1,424.3 107.0,425.3 106.8,426.7 106.7,428.6 106.6,431.0 106.5,433.8 106.5,436.8 106.6,439.6 106.6,442.1 106.8,444.1 107.0,445.6 107.2,446.6 107.4,447.4 107.6,448.2 107.8,449.2 107.9,450.6 108.0,452.6 108.0,455.0 108.0,457.6 107.8,460.4 107.6,463.0 107.4,465.2 107.2,467.0 106.9,468.3 106.7,469.3 106.5,470.0 106.4,470.8 106.3,471.9 106.2,473.4 106.2,475.5 106.3,478.3 106.4,481.2 106.5,483.4 106.7,484.5 106.8,484.1 107.0,482.4 107.2,479.9 107.4,477.1 107.5,474.8 107.6,473.4 107.6,473.4 107.5,474.8 107.4,477.1 107.3,479.8 107.1,482.2 106.9,483.7 106.7,484.0 106.5,483.0 106.4,480.9 106.3,478.4 106.2,475.9 106.2,474.2 106.2,473.6 106.3,474.3 106.4,476.1 106.5,478.6 106.7,481.4 106.8,484.2 106.9,486.7 106.9,488.8 106.9,490.5 106.7,491.8 106.5,492.9 106.3,494.1 105.9,495.6 105.5,497.5 105.1,499.7 104.7,502.3 104.3,505.1 104.0,507.8 103.7,510.2 103.5,512.2 103.4,513.8 103.5,515.0 103.6,515.9 103.8,516.9 104.0,518.1 104.3,519.7 104.6,521.7 104.9,524.1 105.2,526.7 105.4,529.3 105.7,531.6 105.9,533.6 106.0,535.1 106.1,536.2 106.1,537.0 106.1,537.9 106.1,538.9 106.1,540.2 106.0,542.0 105.9,544.1 105.9,546.4 105.8,548.5 105.9,550.6 106.0,552.6 106.1,554.0 106.4,554.5 106.7,553.9 107.0,552.4 107.3,550.5 107.6,548.7 107.8,547.6 107.9,547.6 107.9,548.5 107.8,550.1 107.6,552.0 107.4,553.5 107.2,554.3 106.9,554.0 106.7,552.8 106.5,551.1 106.3,549.2 106.1,547.9 106.0,547.3 105.9,547.8 105.8,549.1 105.8,550.9 105.9,552.6 106.0,553.7 106.3,554.1 106.5,553.8 106.8,553.4 107.1,553.5 107.3,554.6 107.5,556.9 107.5,560.2 107.5,564.3 107.3,568.3 107.2,571.8 107.0,574.3 106.8,575.5 106.6,575.8 106.5,575.6 106.3,575.5 106.2,576.1 106.0,577.8 105.9,580.5 105.8,584.1 105.8,587.9 105.9,591.4 106.0,594.1 106.2,595.7 106.4,596.3 106.7,596.3 107.0,596.2 107.2,596.6 107.3,597.9 107.3,600.2 107.3,603.4 107.2,606.9 107.0,610.3 106.8,613.0 106.7,614.7 106.6,615.3 106.5,615.3 106.4,615.1 106.4,615.3 106.3,616.4 106.3,618.5 106.3,622.0 106.3,625.7 106.3,628.5 106.5,629.5 106.7,628.5 107.0,625.8 107.3,622.3 107.5,619.0 107.7,617.1 107.7,617.0 107.5,618.8 107.3,621.9 107.1,625.3 106.8,627.9 106.5,629.0 106.4,628.2 106.3,625.7 106.3,622.4 106.3,619.3 106.3,617.3 106.3,617.2 106.3,618.7 106.3,621.6 106.3,624.8 106.4,627.4 106.6,628.7 106.8,628.5 107.0,627.4 107.2,626.3 107.3,626.0 107.4,627.2 107.3,630.1 107.2,634.3 107.0,639.2 106.8,643.8 106.6,647.2 106.5,649.0 106.5,649.1 106.6,648.3 106.7,647.3 106.7,647.1 106.8,648.4 106.8,651.2 106.8,655.3 106.8,659.9 106.8,664.2 106.9,667.3 107.0,669.0 107.1,669.2 107.3,668.4 107.4,667.5 107.4,667.4 107.4,668.6 107.2,671.3 107.0,675.2 106.8,679.5 106.6,683.4 106.5,686.3 106.4,687.6 106.5,687.6 106.5,686.8 106.6,686.1 106.7,686.2 106.8,687.6 106.9,690.6 106.8,695.1 106.8,699.5 106.9,702.6 107.0,703.2 107.1,701.2 107.3,697.4 107.5,692.9 107.6,689.3 107.5,687.7 107.4,688.6 107.1,691.7 106.7,696.0 106.4,700.0 106.2,702.4 106.1,702.4 106.1,700.1 106.3,696.2 106.5,692.1 106.7,689.1 106.8,688.2 106.9,689.6 106.9,692.9 106.9,696.9 106.9,700.3 107.0,702.2 107.0,701.8 107.2,699.7 107.2,697.1 107.2,695.4 107.0,695.9 106.7,698.8 106.2,704.0 105.7,710.3 105.1,716.2 104.7,720.4 104.5,722.2 104.4,721.6 104.4,719.6 104.6,717.5 104.7,716.6 104.8,718.0 104.8,721.7 104.8,727.2 104.8,733.1 104.8,738.1 105.0,741.1 105.2,741.7 105.6,740.3 105.9,738.0 106.2,736.4 106.2,736.5 106.1,739.0 105.9,743.5 105.5,749.0 105.2,754.1 105.0,757.6 104.9,758.9 105.1,758.0 105.3,756.0 105.6,754.2 105.9,753.7 106.1,755.5 106.2,759.2 106.3,764.2 106.3,769.4 106.5,773.6 106.8,775.4 107.2,774.2 107.8,770.4 108.2,765.5 108.5,761.4 108.6,759.6 108.3,760.8 107.8,764.5 107.2,769.1 106.5,773.1 106.0,774.9 105.7,773.7 105.6,770.2 105.7,765.6 105.8,761.7 105.9,760.0 106.0,761.0 106.0,764.4 106.0,768.8 106.1,772.6 106.3,774.4 106.8,773.5 107.3,770.3 107.8,766.0 108.2,762.4 108.4,760.6 108.3,761.5 108.0,764.5 107.5,768.7 107.0,772.2 106.6,773.9 106.3,773.1 106.1,770.1 106.1,766.1 106.1,762.6 106.1,760.9 106.0,761.6 105.9,764.5 105.8,768.3 105.8,771.8 106.0,773.5 106.3,772.8 106.8,770.2 107.4,766.4 107.8,763.1 108.1,761.5 108.1,762.1 108.0,764.6 107.7,768.2 107.3,771.5 107.0,773.1 106.7,772.5 106.6,770.0 106.5,766.6 106.4,763.4 106.3,761.8 106.2,762.2 106.0,764.6 105.8,768.0 105.7,771.0 105.8,772.6 106.0,772.3 106.4,770.0 106.9,766.8 107.4,763.8 107.7,762.2 107.9,762.6 107.8,764.8 107.6,767.9 107.4,770.8 107.2,772.4 107.0,772.0 106.9,769.9 106.9,766.9 106.8,764.1 106.7,762.5 106.4,762.8 106.2,764.8 105.9,767.7 105.7,770.4 105.7,772.0 105.9,771.7 106.2,769.8 106.6,767.0 107.0,764.4 107.3,762.9 107.5,763.1 107.5,764.9 107.5,767.6 107.4,770.2 107.2,771.7 107.2,771.5 107.1,769.8 107.1,767.2 107.1,764.7 107.0,763.2 106.7,763.3 106.5,764.9 106.2,767.4 105.9,769.9 105.8,771.3 105.8,771.2 106.0,769.7 106.3,767.2 106.7,764.9 107.0,763.4 107.1,763.5 107.2,765.0 107.2,767.4 107.2,769.7 107.2,771.1 107.2,771.1 107.2,769.6 107.3,767.4 107.3,765.1 107.2,763.8 107.0,763.7 106.7,765.1 106.4,767.3 106.2,769.4 106.0,770.8 105.9,770.8 106.0,769.5 106.2,767.4 106.5,765.3 106.7,764.0 106.9,763.9 107.0,765.2 107.0,767.2 107.0,769.3 107.1,770.6 107.1,770.7 107.2,769.5 107.3,767.5 107.4,765.6 107.4,764.3 107.2,764.2 107.0,765.3 106.7,767.1 106.4,769.1 106.2,770.3 106.1,770.4 106.1,769.3 106.2,767.5 106.4,765.7 106.5,764.4 106.7,764.3 106.7,765.3 106.8,767.1 106.8,768.9 106.9,770.1 107.0,770.3 107.1,769.3 107.3,767.7 107.4,765.9 107.4,764.7 107.3,764.5 107.1,765.4 106.9,767.0 106.6,768.8 106.4,769.9 106.3,770.1 106.2,769.2 106.3,767.6 106.4,765.9 106.5,764.8 106.5,764.7 106.6,765.5 106.6,767.0 106.6,768.6 106.7,769.7 106.8,769.9 107.0,769.2 107.1,767.7 107.3,766.2 107.4,765.3 107.3,765.7 107.1,767.4 106.9,770.0 106.6,773.0 106.4,775.4 106.2,776.6 106.2,776.6 106.2,775.6 106.3,774.4 106.4,773.8 106.5,774.4 106.5,776.1 106.5,778.8 106.5,781.5 106.5,783.6 106.6,784.5 106.9,784.1 107.1,783.1 107.3,782.4 107.4,782.3 107.5,782.8 107.5,783.8 107.4,784.8 107.3,785.4 107.2,785.4 107.1,784.8 107.0,783.8 106.8,782.9 106.7,782.4 106.6,782.5 106.4,783.1 106.3,784.1 106.2,784.9 106.2,785.3 106.3,785.1 106.5,784.4 106.7,783.5 106.9,782.7 107.1,782.4 107.2,782.7 107.3,783.5 107.3,784.4 107.3,785.1 107.3,785.3 107.3,784.9 107.2,784.2 107.2,783.3 107.1,782.7 106.9,782.5 106.8,783.0 106.6,783.7 106.4,784.6 106.3,785.1 106.3,785.1 106.3,784.6 106.4,783.8 106.6,783.1 106.7,782.6 106.9,782.7 107.0,783.2 107.1,784.0 107.1,784.8 107.2,785.1 107.3,785.0 107.3,784.4 107.3,783.6 107.3,783.0 107.2,782.7 107.1,782.9 106.9,783.5 106.7,784.2 106.6,784.8 106.5,785.0 106.4,784.7 106.4,784.1 106.5,783.4 106.5,782.8 106.6,782.7 106.7,783.1 106.8,783.8 106.9,784.5 107.0,784.9 107.1,784.9 107.2,784.5 107.3,783.9 107.3,783.2 107.3,782.9 107.3,782.9 107.2,783.3 107.0,784.0 106.9,784.6 106.7,784.9 106.6,784.7 106.6,784.3 106.5,783.9 106.5,783.9 106.5,784.5 106.5,785.9 106.5,787.8 106.5,789.7 106.6,791.2 106.7,792.1 106.8,792.3 107.0,792.2 107.1,792.0 107.2,792.2 107.2,793.1 107.2,794.6 107.1,796.4 106.9,798.1 106.8,799.4 106.7,800.0 106.6,800.1 106.6,800.3 106.5,800.5 106.5,800.6 106.5,800.6 106.6,800.5 106.6,800.4 106.7,800.2 106.7,800.1 106.8,800.1 106.8,800.2 106.9,800.4 106.9,800.5 106.9,800.6 106.9,800.6 106.9,800.5 106.9,800.3 106.9,800.2 106.9,800.1 106.8,800.1 106.7,800.3 106.7,800.4 106.6,800.5 106.6,800.6 106.6,800.5 106.6,800.4 106.6,800.3 106.6,800.2 106.7,800.1 106.7,800.2 106.7,800.3 106.8,800.5 106.8,800.6 106.9,800.6 106.9,800.5 106.9,800.3 106.9,800.2 106.9,800.1 106.9,800.2 106.9,800.3 106.8,800.4 106.8,800.5 106.7,800.6 106.7,800.5 106.7,800.4 106.6,800.3 106.6,800.2 106.6,800.2 106.6,800.2 106.6,800.3 106.6,800.4 106.7,800.5 106.7,800.5 106.8,800.5 106.8,800.4 106.9,800.2 106.9,800.2 106.9,800.2 106.9,800.3 106.9,800.4 106.9,800.5 106.9,800.6 106.8,800.5 106.8,800.4 106.7,800.3 106.7,800.2 106.6,800.2 106.6,800.2 106.6,800.3 106.6,800.4 106.6,800.5 106.6,800.5 106.7,800.5 106.7,800.4 106.8,800.3 106.8,800.2 106.9,800.2 106.9,800.5 106.9,801.1 106.9,802.1 106.8,803.4 106.7,804.8 106.7,805.9 106.7,806.9 106.7,807.4 106.7,807.8 106.7,808.1 106.7,808.7 106.8,809.5 106.8,810.6 106.8,812.0 106.8,813.2 106.8,814.3 106.9,815.0 106.9,815.5 107.0,815.9 107.0,816.7 107.0,817.0 107.0,817.0 107.0,817.0 107.0,817.0 107.0,817.0 107.0,817.0 106.9,817.0 106.9,817.0 106.9,817.0 106.9,817.0 106.8,817.0 106.8,817.0 106.8,817.0 106.8,817.0 106.8,817.0 106.8,817.0 106.8,817.0 106.9,817.0 106.9,817.0 106.9,817.0 106.9,817.0 107.0,817.0 107.0,817.0 107.0,817.0 107.0,817.0 107.0,817.0 107.0,817.0 107.0,817.0 106.9,817.0 106.9,817.0 106.9,817.0 106.9,817.0 106.8,817.0 106.8,817.0 106.8,817.0 106.8,817.0 106.8,817.0 106.8,817.0 106.9,817.0 106.9,817.0 106.9,817.0 106.9,817.0 107.0,817.0 107.0,817.0 107.0,817.0 107.0,817.0 107.0,817.0 107.0,817.0 107.0,817.0 106.9,817.0 106.9,817.0 106.9,817.0 106.9,817.0 106.8,817.0 106.8,817.0 106.8,817.0 106.8,817.0 106.8,817.0 106.8,817.0 106.9,817.0 106.9,817.0 106.9,817.0 106.9,817.0 106.9,817.0 107.0,817.0 107.0,817.0 107.0,817.0 107.0,817.0 107.0,817.0 107.0,817.0 106.9,817.0 106.9,817.0 106.9,817.0 106.9,817.0 106.9,817.0 106.9,817.0 107.0,817.0 107.3,817.0 107.9,817.0 108.6,817.0 109.6,817.0 110.9,817.0 112.4,817.0 114.1,817.0 115.9,817.0 117.8,817.0 119.6,817.0 121.3,817.0 123.0,817.0 124.4,817.0 125.6,817.0 126.5,817.0 127.2,817.0 127.8,817.0 128.2,817.0 128.6,817.0 128.8,817.0 128.9,817.0 128.9,817.0 128.8,817.0 128.5,817.0 128.2,817.0 127.8,817.0 127.5,817.0 127.1,817.0 126.7,817.0 126.5,817.0 126.3,817.0 126.3,817.0 126.3,817.0 126.4,817.0 126.6,817.0 126.9,817.0 127.2,817.0 127.5,817.0 127.7,817.0 127.9,817.0 128.1,817.0 128.2,817.0 128.2,817.0 128.1,817.0 128.0,817.0 127.9,817.0 127.7,817.0 127.6,817.0 127.4,817.0 127.3,817.0 127.1,817.0 127.1,817.0 127.0,817.0 127.0,817.0 127.1,817.0 127.1,817.0 127.2,817.0 127.2,817.0 127.3,817.0 127.4,817.0 127.4,817.0 127.5,817.0 127.5,817.0 127.5,817.0 127.5,817.0 127.5,817.0 127.5,817.0 127.5,817.0 127.5,817.0 127.5,817.0 127.6,817.0 127.7,817.0 127.9,817.0 128.3,817.0 128.7,817.0 129.2,817.0 129.9,817.0 130.6,817.0 131.3,817.0 132.0,817.0 132.7,817.0 133.4,817.0 134.0,817.0 134.5,817.0 135.0,817.0 135.3,817.0 135.5,817.0 135.7,817.0 135.9,817.0 136.0,817.0 136.0,817.0 136.0,817.0 135.9,817.0 135.8,817.0 135.7,817.0 135.5,817.0 135.4,817.0 135.3,817.0 135.2,817.0 135.1,817.0 135.0,817.0 135.0,817.0 135.0,817.0 135.0,817.0 135.0,817.0 135.0,817.0 135.0,817.0 135.0,817.0 135.0,817.0 135.0,817.0 135.0,817.0 135.0,817.0 135.0,817.0 135.0,817.0 135.0,817.0 135.0,817.0 135.0,817.0 135.0,817.0 135.0,817.0 135.0,817.0 135.0,817.0 135.0,817.0 135.0,817.0 135.0,817.0 135.0,817.0 135.0,817.0 135.0,817.0 135.0,817.0 135.0,817.0 135.0,817.0 135.0,817.0 135.0,817.0 135.0,817.0 135.0,817.0 135.0,817.0 135.0,817.0 135.0,817.0 135.1,817.0 135.1,817.0 135.2,817.0 135.4,817.0 135.6,817.0 135.9,817.0 136.4,817.0 136.9,817.0 137.6,817.0 138.2,817.0 139.1,817.0 139.9,817.0 140.8,817.0 141.7,817.0 142.6,817.0 143.4,817.0 144.2,817.0 144.9,817.0 145.6,817.0 146.1,817.0 146.6,817.0 147.0,817.0 147.3,817.0 147.5,817.0 147.6,817.0 147.5,817.0 147.3,817.0 147.1,817.0 146.7,817.0 146.4,817.0 145.9,817.0 145.5,817.0 145.2,817.0 144.9,817.0 144.6,817.0 144.5,817.0 144.4,817.0 144.4,817.0 144.5,817.0 144.7,817.0 144.9,817.0 145.2,817.0 145.4,817.0 145.7,817.0 146.0,817.0 146.2,817.0 146.3,817.0 146.5,817.0 146.5,817.0 146.5,817.0 146.5,817.0 146.4,817.0 146.3,817.0 146.1,817.0 146.0,817.0 145.8,817.0 145.7,817.0 145.6,817.0 145.5,817.0 145.4,817.0 145.4,817.0 145.4,817.0 145.4,817.0 145.4,817.0 145.4,817.0 145.4,817.0 145.4,817.0 145.4,817.0 145.4,817.0 145.4,817.0 145.4,817.0 145.4,817.0 145.5,817.0 145.6,817.0 145.9,817.0 146.2,817.0 146.7,817.0 147.2,817.0 147.9,817.0 148.7,817.0 149.5,817.0 150.5,817.0 151.4,817.0 152.4,817.0 153.3,817.0 154.2,817.0 155.0,817.0 155.7,817.0 156.3,817.0 156.8,817.0 157.2,817.0 157.6,817.0 157.8,817.0 157.9,817.0 157.9,817.0 157.8,817.0 157.6,817.0 157.3,817.0 157.0,817.0 156.6,817.0 156.2,817.0 155.8,817.0 155.5,817.0 155.2,817.0 155.0,817.0 154.9,817.0 154.9,817.0 155.0,817.0 155.1,817.0 155.3,817.0 155.5,817.0 155.8,817.0 156.0,817.0 156.3,817.0 156.5,817.0 156.7,817.0 156.8,817.0 156.9,817.0 156.9,817.0 156.9,817.0 156.8,817.0 156.7,817.0 156.6,817.0 156.5,817.0 156.4,817.0 156.2,817.0 156.1,817.0 156.0,817.0 156.0,817.0 155.9,817.0 155.9,817.0 155.9,817.0 155.9,817.0 155.9,817.0 155.9,817.0 155.9,817.0 155.9,817.0 155.9,817.0 155.9,817.0 155.9,817.0 155.9,817.0 155.9,817.0 156.0,817.0 156.1,817.0 156.3,817.0 156.7,817.0 157.1,817.0 157.6,817.0 158.3,817.0 159.1,817.0 159.9,817.0 160.8,817.0 161.8,817.0 162.7,817.0 163.7,817.0 164.5,817.0 165.3,817.0 166.1,817.0 166.7,817.0 167.2,817.0 167.6,817.0 168.0,817.0 168.2,817.0 168.3,817.0 168.3,817.0 168.2,817.0 168.0,817.0 167.7,817.0 167.4,817.0 167.0,817.0 166.6,817.0 166.2,817.0 165.9,817.0 165.6,817.0 165.4,817.0 165.3,817.0 165.3,817.0 165.4,817.0 165.5,817.0 165.7,817.0 165.9,817.0 166.2,817.0 166.4,817.0 166.7,817.0 166.9,817.0 167.1,817.0 167.2,817.0 167.3,817.0 167.3,817.0 167.3,817.0 167.2,817.0 167.1,817.0 167.0,817.0 166.9,817.0 166.8,817.0 166.6,817.0 166.5,817.0 166.4,817.0 166.3,817.0 166.3,817.0 166.3,817.0 166.3,817.0 166.3,817.0 166.3,817.0 166.3,817.0 166.3,817.0 166.3,817.0 166.3,817.0 166.3,817.0 166.3,817.0 166.3,817.0 166.3,817.0 166.4,817.0 166.5,817.0 166.7,817.0 167.1,817.0 167.5,817.0 168.0,817.0 168.7,817.0 169.5,817.0 170.3,817.0 171.3,817.0 172.5,817.0 173.9,817.0 175.4,817.0 177.1,817.0 179.0,817.0 181.2,817.0 183.6,817.0 186.2,817.0 189.1,817.0 192.3,817.0 195.6,817.0 199.1,817.0 202.8,817.0 206.7,817.0 211.5,817.0 218.0,817.0 227.2,817.0 240.3,817.0 259.1,817.0 297.3,817.0" fill="none" stroke="#bf8700" stroke-width="1.2" stroke-opacity="0.8"/>
<polyline points="202.0,190.0 202.0,189.9 201.9,189.8 201.9,189.7 201.9,189.6 201.9,189.6 201.8,189.6 201.8,189.6 201.8,189.6 201.8,189.7 201.8,189.7 201.7,189.7 201.7,189.7 201.7,189.8 201.7,189.7 201.7,189.7 201.8,189.7 201.8,189.7 201.8,189.7 201.8,189.7 201.8,189.7 201.8,189.7 201.8,189.7 201.8,189.7 201.8,189.7 201.8,189.7 201.8,189.7 201.8,189.7 201.8,189.7 201.8,189.7 201.8,189.7 201.8,189.7 201.8,189.7 201.8,189.7 201.8,189.7 201.8,189.7 201.8,189.7 201.8,189.7 201.8,189.7 201.8,189.7 201.8,189.7 201.8,189.7 201.8,189.7 201.8,189.7 201.8,189.7 201.8,189.7 201.8,189.7 201.8,189.7 201.8,189.7 201.8,189.7 201.8,189.7 201.8,189.7 201.8,189.7 201.8,189.7 201.8,189.7 201.8,189.7 201.8,189.7 201.8,189.7 201.8,189.7 201.8,189.7 201.8,189.7 201.8,189.7 201.8,189.7 201.8,189.7 201.8,189.7 201.8,189.7 201.8,189.7 201.8,189.7 201.8,189.7 201.8,189.7 201.8,189.7 201.8,189.7 201.8,189.7 201.8,189.7 201.8,189.7 201.8,189.7 201.8,189.7 201.8,189.7 201.8,189.7 201.8,189.7 201.8,189.7 201.8,189.7 201.8,189.7 201.8,189.7 201.8,189.7 201.8,189.7 201.8,189.7 201.8,189.7 201.8,189.7 201.8,189.7 201.8,189.7 201.8,189.7 201.8,189.7 201.8,189.7 201.8,189.7 201.8,189.7 201.8,189.7 201.8,189.7 201.8,189.7 201.8,189.7 201.8,189.7 201.8,189.7 201.8,189.7 201.8,189.7 201.8,189.7 201.8,189.7 201.8,189.7 201.8,189.7 201.8,189.7 201.8,189.7 201.8,189.7 201.8,189.7 201.8,189.7 201.8,189.7 201.8,189.7 201.8,189.7 201.8,189.7 201.8,189.7 201.8,189.7 201.8,189.7 201.8,189.7 201.8,189.7 201.8,189.7 201.8,189.7 201.8,189.7 201.8,189.7 201.8,189.7 201.8,189.7 201.8,189.7 201.8,189.7 201.8,189.7 201.8,189.7 201.8,189.7 201.8,189.7 201.8,189.7 201.8,189.7 201.8,189.7 201.8,189.7 201.8,189.7 201.8,189.7 201.8,189.7 201.8,189.7 201.8,189.7 201.8,189.7 201.8,189.7 201.8,189.7 201.8,189.7 201.8,189.7 201.8,189.7 201.8,189.7 201.8,189.7 201.8,189.7 201.8,189.7 201.8,189.7 201.8,189.7 201.8,189.7 201.8,189.7 201.8,189.7 201.8,189.7 201.8,189.7 201.8,189.7 201.8,189.7 201.8,189.7 201.8,189.7 201.8,189.7 201.8,189.7 201.8,189.7 201.8,189.7 201.8,189.7 201.8,189.7 201.8,189.7 201.8,189.7 201.8,189.7 201.8,189.7 201.8,189.7 201.8,189.7 201.8,189.7 201.8,189.7 201.8,189.7 201.8,189.7 201.8,189.7 201.8,189.7 201.8,189.7 201.8,189.7 201.8,189.7 201.8,189.7 201.8,189.7 201.8,189.7 201.8,189.7 201.8,189.7 201.8,189.7 201.8,189.7 201.8,189.7 201.8,189.7 201.8,189.7 201.8,189.7 201.8,189.7 201.8,189.7 201.8,189.7 201.8,189.7 201.8,189.7 201.8,189.7 201.8,189.7 201.8,189.7 201.8,189.7 201.8,189.7 201.8,189.7 201.8,189.7 201.8,189.7 201.8,189.7 201.8,189.7 201.8,189.7 201.8,189.7 201.8,189.7 201.8,189.7 201.8,189.7 201.8,189.7 201.8,189.7 201.8,189.7 201.8,189.7 201.8,189.7 201.8,189.7 201.8,189.7 201.8,189.7 201.8,189.7 201.8,189.7 201.8,189.7 201.8,189.7 201.8,189.7 201.8,189.7 201.8,189.7 201.8,189.7 201.8,189.7 201.8,189.7 201.8,189.7 201.8,189.7 201.8,189.7 201.8,189.7 201.8,189.7 201.8,189.7 201.8,189.7 201.8,189.7 201.8,189.7 201.8,189.7 201.8,189.7 201.8,189.7 201.8,189.7 201.8,189.7 201.8,189.7 201.8,189.7 201.8,189.7 201.8,189.7 201.9,189.7 202.2,189.7 202.8,189.7 203.7,189.6 205.0,189.6 206.7,189.6 208.8,189.5 211.2,189.5 213.9,189.5 216.9,189.5 219.9,189.5 223.0,189.5 225.9,189.5 228.6,189.6 231.1,189.6 233.3,189.6 235.2,189.7 236.8,189.7 238.1,189.7 239.2,189.7 240.1,189.7 241.1,189.7 242.0,189.7 243.0,189.7 244.1,189.7 245.4,189.7 246.9,189.7 248.6,189.6 250.5,189.6 252.6,189.6 254.8,189.6 257.1,189.6 259.4,189.6 261.8,189.6 264.1,189.7 266.4,189.7 268.6,189.8 270.7,189.9 272.9,190.0 275.1,190.0 277.2,190.1 279.1,190.2 280.7,190.3 281.9,190.3 282.6,190.4 282.7,190.4 282.4,190.5 281.5,190.4 280.3,190.4 278.7,190.3 276.8,190.2 274.9,190.1 273.0,190.0 271.2,189.8 269.6,189.7 268.3,189.6 267.5,189.6 267.0,189.6 267.0,189.6 267.4,189.6 268.3,189.7 269.4,189.7 270.7,189.8 272.3,189.9 273.8,189.9 275.5,190.0 277.2,190.0 279.0,190.1 280.8,190.1 282.8,190.1 284.8,190.1 286.9,190.1 289.2,190.2 291.4,190.2 293.6,190.2 295.8,190.2 297.9,190.2 299.8,190.1 301.6,190.1 303.1,190.1 304.5,190.0 305.7,190.0 306.8,189.9 307.8,189.9 308.9,189.9 309.9,189.9 311.1,189.9 312.5,189.9 314.1,189.9 315.9,190.0 318.0,190.0 320.4,190.1 323.0,190.1 325.7,190.1 328.5,190.1 331.3,190.1 334.0,190.1 336.6,190.1 338.9,190.1 341.1,190.1 342.9,190.1 344.4,190.1 345.6,190.1 346.8,190.1 347.8,190.1 348.8,190.0 349.6,190.0 350.1,190.0 350.5,190.1 350.5,190.1 350.4,190.1 349.9,190.2 349.3,190.2 348.6,190.3 347.8,190.3 346.9,190.2 346.1,190.1 345.3,190.0 344.6,189.9 344.1,189.8 343.7,189.7 343.5,189.7 343.4,189.7 343.6,189.7 343.8,189.7 344.2,189.8 344.6,189.9 345.1,190.0 345.6,190.1 346.2,190.2 346.7,190.5 347.2,191.4 347.7,192.8 348.0,195.0 348.3,197.9 348.6,201.2 348.7,204.8 348.8,208.2 348.8,211.2 348.8,213.6 348.8,215.3 348.7,216.4 348.5,217.1 348.2,217.6 347.8,218.2 347.4,219.3 346.9,221.0 346.4,223.3 345.9,226.2 345.4,229.5 345.1,232.9 344.8,236.2 344.8,239.2 344.9,241.5 345.2,243.3 345.6,244.5 346.2,245.3 346.8,246.1 347.5,246.9 348.1,248.1 348.7,249.9 349.1,252.2 349.4,255.0 349.5,258.2 349.4,261.5 349.2,264.6 348.8,267.4 348.4,269.7 347.8,271.6 347.1,273.3 346.5,274.6 345.9,275.0 345.4,274.7 345.0,273.6 344.7,271.9 344.6,270.0 344.5,268.3 344.6,267.1 344.8,266.7 345.0,267.0 345.2,268.1 345.5,269.7 345.8,271.5 346.2,273.1 346.5,274.2 346.8,274.7 347.1,274.4 347.4,273.4 347.7,271.9 347.9,270.2 348.0,268.7 348.0,267.6 347.9,267.2 347.8,267.6 347.6,268.6 347.3,270.5 347.0,272.9 346.7,275.9 346.4,279.2 346.1,282.6 345.9,285.7 345.7,288.4 345.6,290.6 345.6,292.2 345.7,293.4 345.8,294.4 346.0,295.3 346.1,296.5 346.4,298.1 346.6,300.2 346.8,302.8 347.1,305.8 347.4,309.0 347.7,312.2 347.9,315.2 348.2,317.7 348.5,319.7 348.7,321.2 348.8,322.3 348.9,323.1 349.0,324.0 348.9,325.1 348.7,326.6 348.5,328.6 348.1,331.1 347.7,334.0 347.2,337.0 346.7,340.0 346.2,342.6 345.8,344.8 345.5,346.5 345.2,347.7 345.0,348.6 344.9,349.5 344.9,350.8 345.0,352.2 345.2,353.4 345.5,354.3 345.9,354.5 346.3,354.1 346.8,353.2 347.3,351.9 347.7,350.6 348.1,349.5 348.3,348.9 348.5,348.8 348.4,349.3 348.3,350.3 348.0,351.5 347.6,352.7 347.1,353.6 346.6,354.1 346.0,354.0 345.6,353.4 345.1,352.3 344.8,351.1 344.6,350.1 344.5,349.3 344.6,349.0 344.8,349.3 345.1,350.4 345.5,352.4 345.9,355.2 346.4,358.6 346.9,362.4 347.3,366.1 347.7,369.6 348.0,372.4 348.2,374.5 348.4,375.9 348.5,376.8 348.5,377.3 348.6,378.0 348.6,379.1 348.5,380.7 348.5,383.0 348.5,386.0 348.5,389.4 348.4,392.9 348.4,396.2 348.3,399.1 348.2,401.3 348.0,402.9 347.8,403.9 347.6,404.5 347.4,405.1 347.1,405.9 346.8,407.1 346.6,409.1 346.5,411.6 346.4,414.7 346.3,417.9 346.4,421.1 346.5,424.0 346.7,426.3 346.9,427.9 347.2,429.0 347.4,429.6 347.6,430.3 347.7,431.5 347.8,432.9 347.8,434.2 347.7,435.0 347.5,435.3 347.2,435.0 346.8,434.1 346.5,432.8 346.1,431.5 345.8,430.4 345.5,429.8 345.3,429.8 345.2,430.4 345.1,431.4 345.2,432.7 345.3,433.9 345.5,434.8 345.8,435.1 346.1,434.8 346.4,434.0 346.7,432.9 346.9,431.7 347.2,430.7 347.3,430.0 347.5,430.0 347.5,430.6 347.5,432.0 347.5,434.2 347.4,437.2 347.3,440.8 347.3,444.7 347.2,448.4 347.1,451.7 347.1,454.3 347.0,456.0 347.0,457.2 347.0,457.9 347.1,458.6 347.2,459.5 347.3,461.0 347.5,463.3 347.6,466.2 347.9,469.6 348.1,473.2 348.2,476.6 348.4,479.4 348.5,481.7 348.5,483.1 348.5,483.9 348.5,484.5 348.5,485.0 348.4,485.9 348.3,487.5 348.3,489.7 348.2,492.5 348.1,495.7 348.0,498.9 347.8,501.8 347.6,504.1 347.4,505.6 347.1,506.4 346.8,506.9 346.5,507.2 346.2,507.8 346.0,509.1 345.8,511.5 345.7,514.3 345.7,516.7 345.6,518.2 345.7,518.3 345.7,517.1 345.8,514.9 345.9,512.3 346.2,510.0 346.5,508.5 346.8,508.4 347.2,509.5 347.5,511.5 347.8,513.9 347.9,516.1 347.9,517.4 347.7,517.5 347.3,516.4 346.9,514.4 346.4,512.1 345.9,510.1 345.5,508.9 345.2,508.9 345.1,510.0 345.1,512.0 345.3,514.4 345.6,516.9 345.9,519.4 346.4,521.6 346.9,523.6 347.4,525.5 348.0,527.4 348.4,529.4 348.8,531.5 349.2,533.9 349.5,536.6 349.7,539.3 349.8,542.0 349.8,544.7 349.8,547.1 349.7,549.2 349.5,551.1 349.4,552.8 349.2,554.5 349.0,556.3 348.9,558.2 348.8,560.4 348.8,562.6 348.7,564.9 348.7,567.2 348.7,569.2 348.6,571.0 348.5,572.6 348.4,574.1 348.3,575.5 348.1,577.1 348.0,578.8 347.8,580.7 347.7,582.8 347.6,584.9 347.4,587.0 347.3,588.9 347.1,590.6 347.0,591.9 346.9,593.3 346.7,595.0 346.6,596.4 346.5,597.1 346.3,596.7 346.1,595.5 345.9,593.9 345.7,592.3 345.6,591.4 345.6,591.4 345.7,592.4 345.8,593.9 346.0,595.4 346.1,596.5 346.2,596.7 346.3,595.9 346.3,594.6 346.3,593.0 346.3,591.9 346.4,591.6 346.6,592.2 346.8,593.5 347.0,595.0 347.2,596.3 347.3,596.8 347.3,596.4 347.3,595.2 347.2,593.7 347.0,592.4 346.9,591.6 346.7,591.7 346.6,592.6 346.5,594.0 346.3,595.4 346.2,596.3 346.0,596.4 345.7,595.7 345.5,594.4 345.4,593.1 345.3,592.1 345.3,591.9 345.5,592.5 345.7,593.6 346.0,595.0 346.4,596.1 346.7,596.5 347.0,596.1 347.2,595.0 347.4,593.7 347.5,592.5 347.6,591.9 347.6,592.0 347.6,592.9 347.5,594.1 347.4,595.3 347.1,596.0 346.8,596.0 346.4,595.4 346.0,594.2 345.6,593.1 345.3,592.3 345.1,592.2 345.1,592.8 345.1,593.8 345.3,595.0 345.5,595.9 345.8,596.2 346.0,595.8 346.3,594.8 346.6,593.6 346.8,592.6 347.1,592.2 347.3,592.4 347.6,593.1 347.7,594.2 347.8,595.2 347.7,595.8 347.5,595.7 347.3,595.1 346.9,594.1 346.6,593.1 346.2,592.5 345.9,592.5 345.7,593.0 345.6,594.0 345.5,595.0 345.5,595.7 345.5,595.9 345.6,595.5 345.6,594.6 345.8,593.6 346.0,592.8 346.2,592.4 346.5,592.6 346.8,593.4 347.0,594.3 347.2,595.2 347.4,595.6 347.4,595.5 347.4,594.9 347.2,594.0 347.1,593.2 346.9,592.7 346.7,592.7 346.5,593.2 346.4,594.1 346.3,594.9 346.2,595.5 346.1,595.7 345.9,595.2 345.9,594.5 345.8,593.6 345.8,592.9 345.9,592.6 346.0,592.9 346.1,593.6 346.3,594.4 346.5,595.1 346.6,595.4 346.7,595.3 346.7,594.7 346.8,593.9 346.7,593.2 346.7,592.8 346.7,592.9 346.8,593.4 346.8,594.2 346.8,594.9 346.8,595.4 346.7,595.4 346.6,595.0 346.5,594.3 346.4,593.6 346.3,593.0 346.2,592.8 346.2,593.1 346.2,593.7 346.2,594.4 346.2,595.0 346.2,595.3 346.2,595.1 346.2,594.6 346.1,593.9 346.1,593.3 346.2,593.0 346.2,593.1 346.3,593.6 346.5,594.2 346.6,594.9 346.7,595.3 346.8,595.3 346.8,594.9 346.9,594.2 346.8,593.6 346.8,593.1 346.8,593.0 346.8,593.3 346.7,593.8 346.7,594.4 346.6,594.9 346.5,595.1 346.3,594.9 346.2,594.4 346.0,593.9 345.9,593.3 345.9,593.1 345.9,593.2 345.9,593.7 346.0,594.3 346.1,594.8 346.2,595.1 346.4,595.1 346.5,594.7 346.6,594.2 346.7,593.6 346.8,593.2 346.9,593.2 347.0,593.4 347.0,593.9 347.0,594.4 347.0,594.9 346.9,595.0 346.8,594.8 346.6,594.3 346.5,593.8 346.3,593.4 346.1,593.2 346.0,593.4 346.0,593.8 346.0,594.3 346.0,594.8 346.1,595.0 346.1,594.9 346.2,594.6 346.3,594.1 346.4,593.6 346.5,593.3 346.7,593.3 346.8,593.5 347.0,594.0 347.1,594.4 347.2,594.8 347.2,594.9 347.1,594.7 347.0,594.3 346.9,593.8 346.8,593.5 346.6,593.4 346.5,593.5 346.4,593.9 346.3,594.3 346.3,594.7 346.2,594.9 346.2,594.8 346.2,594.5 346.2,594.1 346.2,593.7 346.2,593.4 346.3,593.4 346.5,593.6 346.6,594.0 346.7,594.4 346.8,594.7 346.9,594.8 346.9,594.6 346.9,594.2 346.9,593.9 346.9,593.6 346.8,593.5 346.8,593.6 346.7,593.9 346.7,594.3 346.6,594.6 346.6,594.8 346.5,594.7 346.4,594.4 346.4,594.1 346.3,593.7 346.3,593.5 346.3,593.5 346.4,593.7 346.4,594.1 346.5,594.4 346.5,594.6 346.5,594.7 346.6,594.5 346.6,594.2 346.6,593.9 346.6,593.6 346.6,593.5 346.7,593.7 346.7,594.0 346.7,594.3 346.7,594.6 346.8,594.7 346.7,594.6 346.7,594.4 346.7,594.1 346.6,593.8 346.6,593.6 346.6,593.6 346.6,593.8 346.5,594.1 346.5,594.4 346.5,594.6 346.5,594.6 346.4,594.4 346.4,594.2 346.4,593.9 346.4,593.7 346.4,593.6 346.4,593.7 346.5,594.0 346.5,594.3 346.6,594.5 346.6,594.6 346.7,594.5 346.7,594.3 346.7,594.1 346.8,593.8 346.8,593.6 346.8,593.7 346.8,593.9 346.8,594.1 346.8,594.3 346.7,594.5 346.7,594.5 346.6,594.4 346.5,594.2 346.4,593.9 346.4,593.7 346.3,593.7 346.3,593.8 346.3,594.0 346.3,594.3 346.4,594.5 346.4,594.6 346.5,594.5 346.5,594.3 346.6,594.0 346.6,593.8 346.7,593.7 346.7,593.7 346.8,593.9 346.8,594.1 346.9,594.3 346.9,594.5 346.8,594.5 346.8,594.3 346.7,594.1 346.6,593.9 346.5,593.8 346.5,593.7 346.4,593.9 346.4,594.1 346.4,594.3 346.3,594.4 346.3,594.5 346.4,594.4 346.4,594.2 346.4,594.1 346.4,593.9 346.5,593.8 346.6,593.8 346.6,593.9 346.7,594.1 346.8,594.3 346.8,594.4 346.8,594.4 346.8,594.3 346.8,594.1 346.7,593.9 346.7,593.8 346.6,593.8 346.6,593.9 346.6,594.1 346.5,594.2 346.5,594.4 346.5,594.4 346.4,594.4 346.4,594.2 346.4,594.1 346.4,593.9 346.4,593.8 346.4,593.8 346.5,594.0 346.5,594.1 346.6,594.3 346.6,594.4 346.7,594.4 346.7,594.3 346.7,594.1 346.7,594.0 346.7,593.9 346.7,593.8 346.7,593.9 346.6,594.1 346.6,594.2 346.6,594.4 346.6,594.4 346.6,594.3 346.5,594.2 346.5,594.1 346.5,593.9 346.5,593.8 346.5,593.9 346.5,594.0 346.5,594.1 346.5,594.3 346.5,594.3 346.5,594.3 346.5,594.2 346.5,594.1 346.5,594.0 346.6,593.9 346.6,593.9 346.6,594.0 346.6,594.1 346.6,594.2 346.6,594.3 346.6,594.4 346.6,594.3 346.6,594.2 346.6,594.1 346.6,593.9 346.6,593.9 346.6,593.9 346.6,594.0 346.6,594.1 346.6,594.2 346.6,594.3 346.5,594.3 346.5,594.2 346.5,594.1 346.5,594.0 346.5,593.9 346.5,593.9 346.5,594.0 346.5,594.1 346.5,594.2 346.5,594.3 346.6,594.3 346.6,594.3 346.6,594.2 346.6,594.1 346.6,594.0 346.7,593.9 346.7,593.9 346.7,594.0 346.7,594.1 346.7,594.2 346.7,594.3 346.6,594.3 346.6,594.2 346.6,594.1 346.5,594.0 346.5,593.9 346.5,593.9 346.5,594.0 346.4,594.1 346.5,594.2 346.5,594.3 346.5,594.3 346.5,594.3 346.5,594.2 346.5,594.1 346.5,594.0 346.5,593.9 346.6,594.0 346.6,594.0 346.6,594.1 346.6,594.2 346.6,594.3 346.6,594.3 346.6,594.2 346.5,594.1 346.5,594.0 346.5,594.0 346.4,594.0 346.4,594.0 346.4,594.1 346.4,594.2 346.4,594.2 346.4,594.3 346.4,594.2 346.4,594.2 346.4,594.1 346.4,594.0 346.4,594.0 346.5,594.0 346.5,594.0 346.5,594.1 346.6,594.2 346.6,594.2 346.6,594.2 346.6,594.2 346.6,594.1 346.6,594.0 346.5,594.0 346.5,594.0 346.5,594.0 346.5,594.1 346.5,594.2 346.4,594.2 346.4,594.2 346.4,594.2 346.4,594.2 346.4,594.1 346.4,594.0 346.4,594.0 346.4,594.0 346.4,594.1 346.5,594.1 346.5,594.2 346.5,594.2 346.5,594.2 346.5,594.2 346.5,594.1 346.5,594.1 346.5,594.0 346.5,594.0 346.5,594.0 346.5,594.1 346.5,594.2 346.5,594.2 346.5,594.2 346.5,594.2 346.5,594.2 346.5,594.1 346.4,594.0 346.4,594.0 346.4,594.0 346.4,594.1 346.4,594.1 346.4,594.2 346.4,594.2 346.5,594.2 346.5,594.2 346.5,594.1 346.5,594.1 346.5,594.0 346.5,594.0 346.5,594.1 346.5,594.1 346.5,594.2 346.5,594.2 346.5,594.2 346.5,594.2 346.5,594.2 346.5,594.1 346.5,594.0 346.5,594.0 346.5,594.0 346.5,594.1 346.5,594.1 346.5,594.2 346.5,594.2 346.5,594.2 346.4,594.2 346.4,594.1 346.4,594.1 346.4,594.0 346.4,594.0 346.4,594.1 346.4,594.1 346.4,594.2 346.5,594.2 346.5,594.2 346.5,594.2 346.5,594.2 346.5,594.1 346.5,594.1 346.5,594.0 346.5,594.0 346.5,594.1 346.5,596.6 346.5,611.1 346.5,638.3 346.5,678.0 346.5,730.1" fill="none" stroke="#8250df" stroke-width="1.2" stroke-opacity="0.8"/>
<circle cx="364.0" cy="817.0" r="33.0" fill="#1a7f37" fill-opacity="0.85" stroke="#1f2328" stroke-width="0.8"/>
<text x="364.0" y="821.0" font-size="11" font-weight="600" text-anchor="middle" fill="#ffffff">1</text>
<circle cx="346.4" cy="763.1" r="33.0" fill="#8250df" fill-opacity="0.85" stroke="#1f2328" stroke-width="0.8"/>
<text x="346.4" y="767.1" font-size="11" font-weight="600" text-anchor="middle" fill="#ffffff">3</text>
<circle cx="308.4" cy="817.0" r="33.0" fill="#bf8700" fill-opacity="0.85" stroke="#1f2328" stroke-width="0.8"/>
<text x="308.4" y="821.0" font-size="11" font-weight="600" text-anchor="middle" fill="#ffffff">2</text>
<circle cx="367.0" cy="817.0" r="33.0" fill="#0969da" fill-opacity="0.85" stroke="#1f2328" stroke-width="0.8"/>
<text x="367.0" y="821.0" font-size="11" font-weight="600" text-anchor="middle" fill="#ffffff">0</text>
<rect x="592" y="58" width="352" height="364" fill="#eaeef2" stroke="#d0d7de"/>
<circle cx="814.4" cy="291.9" r="52.0" fill="#0969da" fill-opacity="0.85" stroke="#1f2328" stroke-width="0.8"/>
<text x="814.4" y="295.9" font-size="12" font-weight="600" text-anchor="middle" fill="#ffffff">0</text>
<circle cx="809.6" cy="188.0" r="52.0" fill="#1a7f37" fill-opacity="0.85" stroke="#1f2328" stroke-width="0.8"/>
<text x="809.6" y="192.0" font-size="12" font-weight="600" text-anchor="middle" fill="#ffffff">1</text>
<circle cx="722.0" cy="244.2" r="52.0" fill="#bf8700" fill-opacity="0.85" stroke="#1f2328" stroke-width="0.8"/>
<text x="722.0" y="248.2" font-size="12" font-weight="600" text-anchor="middle" fill="#ffffff">2</text>
<circle cx="782.0" cy="241.4" r="52.0" fill="#8250df" fill-opacity="0.85" stroke="#1f2328" stroke-width="0.8"/>
<text x="782.0" y="245.4" font-size="12" font-weight="600" text-anchor="middle" fill="#ffffff">3</text>
<text x="618.0" y="438" font-size="11" text-anchor="middle" fill="#1f2328">0.12</text>
<text x="768.2" y="438" font-size="11" text-anchor="middle" fill="#1f2328">0.41</text>
<text x="918.4" y="438" font-size="11" text-anchor="middle" fill="#1f2328">0.70</text>
<text x="592" y="460" font-size="11.5" fill="#1f2328">gaps between touching beads: 0 µm, 0 µm, 0 µm, 0 µm, 0 µm, -0 µm</text>
<text x="70" y="1004" font-size="11" fill="#57606a">Gor'kov force from the exact glass-chamber modes (10 tones, 4× holding drive), gravity, air drag; beads fuse where they first touch. Not modelled: scattering by the support and placed beads, streaming.</text>
</svg>